<?xml version="1.0" encoding="UTF-8" standalone="no"?><svg xmlns="http://www.w3.org/2000/svg" xmlns:xlink="http://www.w3.org/1999/xlink" contentScriptType="application/ecmascript" contentStyleType="text/css" height="505px" preserveAspectRatio="none" style="width:6478px;height:505px;" version="1.1" viewBox="0 0 6478 505" width="6478.75px" zoomAndPan="magnify"><defs><filter height="300%" id="f1h8s4jsqq8k55" width="300%" x="-1" y="-1"><feGaussianBlur result="blurOut" stdDeviation="2.5"/><feColorMatrix in="blurOut" result="blurOut2" type="matrix" values="0 0 0 0 0 0 0 0 0 0 0 0 0 0 0 0 0 0 .4 0"/><feOffset dx="5.0" dy="5.0" in="blurOut2" result="blurOut3"/><feBlend in="SourceGraphic" in2="blurOut3" mode="normal"/></filter></defs><g><!--MD5=[030afa763949bc4d098149adb5356f17]
cluster at.itkollegimst.Hain.pos1makro.test2.buchhandlung.domain.model.aggregates--><polygon fill="#FFFFFF" filter="url(#f1h8s4jsqq8k55)" points="46.25,215,733.75,215,742.5,244.5117,746.25,244.5117,746.25,496.25,46.25,496.25,46.25,215" style="stroke:#000000;stroke-width:1.875;"/><line style="stroke:#000000;stroke-width:1.875;" x1="46.25" x2="742.5" y1="244.5117" y2="244.5117"/><text fill="#000000" font-family="sans-serif" font-size="17.5" font-weight="bold" lengthAdjust="spacing" textLength="680" x="51.25" y="235.6665">at.itkollegimst.Hain.pos1makro.test2.buchhandlung.domain.model.aggregates</text><!--MD5=[669a1f8f1655c1663563346063b73aec]
cluster at.itkollegimst.Hain.pos1makro.test2.shareddomain.events--><polygon fill="#FFFFFF" filter="url(#f1h8s4jsqq8k55)" points="563.75,7.5,1083.75,7.5,1092.5,37.0117,1096.25,37.0117,1096.25,185,563.75,185,563.75,7.5" style="stroke:#000000;stroke-width:1.875;"/><line style="stroke:#000000;stroke-width:1.875;" x1="563.75" x2="1092.5" y1="37.0117" y2="37.0117"/><text fill="#000000" font-family="sans-serif" font-size="17.5" font-weight="bold" lengthAdjust="spacing" textLength="512.5" x="568.75" y="28.1665">at.itkollegimst.Hain.pos1makro.test2.shareddomain.events</text><!--MD5=[e176e1ba5142d02f19deb70e8d8e9017]
cluster at.itkollegimst.Hain.pos1makro.test2.buchhandlung.infrastructure.repository.jpa--><polygon fill="#FFFFFF" filter="url(#f1h8s4jsqq8k55)" points="1018.75,275.625,1726.25,275.625,1735,305.1367,1738.75,305.1367,1738.75,435.625,1018.75,435.625,1018.75,275.625" style="stroke:#000000;stroke-width:1.875;"/><line style="stroke:#000000;stroke-width:1.875;" x1="1018.75" x2="1735" y1="305.1367" y2="305.1367"/><text fill="#000000" font-family="sans-serif" font-size="17.5" font-weight="bold" lengthAdjust="spacing" textLength="700" x="1023.75" y="296.2915">at.itkollegimst.Hain.pos1makro.test2.buchhandlung.infrastructure.repository.jpa</text><!--MD5=[834a7fc99ccc75e6470cab9307a0dda2]
cluster at.itkollegimst.Hain.pos1makro.test2.buchhandlung.application.internal.outboundservices--><polygon fill="#FFFFFF" filter="url(#f1h8s4jsqq8k55)" points="1528.75,16.25,2323.75,16.25,2332.5,45.7617,2336.25,45.7617,2336.25,176.25,1528.75,176.25,1528.75,16.25" style="stroke:#000000;stroke-width:1.875;"/><line style="stroke:#000000;stroke-width:1.875;" x1="1528.75" x2="2332.5" y1="45.7617" y2="45.7617"/><text fill="#000000" font-family="sans-serif" font-size="17.5" font-weight="bold" lengthAdjust="spacing" textLength="787.5" x="1533.75" y="36.9165">at.itkollegimst.Hain.pos1makro.test2.buchhandlung.application.internal.outboundservices</text><!--MD5=[b5ce871e12da982b38c875a3b01622ee]
cluster at.itkollegimst.Hain.pos1makro.test2.buchhandlung.domain.model.commands--><polygon fill="#FFFFFF" filter="url(#f1h8s4jsqq8k55)" points="2366.25,7.5,3047.5,7.5,3056.25,37.0117,3060,37.0117,3060,185,2366.25,185,2366.25,7.5" style="stroke:#000000;stroke-width:1.875;"/><line style="stroke:#000000;stroke-width:1.875;" x1="2366.25" x2="3056.25" y1="37.0117" y2="37.0117"/><text fill="#000000" font-family="sans-serif" font-size="17.5" font-weight="bold" lengthAdjust="spacing" textLength="673.75" x="2371.25" y="28.1665">at.itkollegimst.Hain.pos1makro.test2.buchhandlung.domain.model.commands</text><!--MD5=[af6146e172c88a84ff6bfac27aa694b9]
cluster at.itkollegimst.Hain.pos1makro.test2.buchhandlung--><polygon fill="#FFFFFF" filter="url(#f1h8s4jsqq8k55)" points="3090,25,3545,25,3553.75,54.5117,3557.5,54.5117,3557.5,167.5,3090,167.5,3090,25" style="stroke:#000000;stroke-width:1.875;"/><line style="stroke:#000000;stroke-width:1.875;" x1="3090" x2="3553.75" y1="54.5117" y2="54.5117"/><text fill="#000000" font-family="sans-serif" font-size="17.5" font-weight="bold" lengthAdjust="spacing" textLength="447.5" x="3095" y="45.6665">at.itkollegimst.Hain.pos1makro.test2.buchhandlung</text><!--MD5=[8d84d3aa41335ba5c3a07cd7be701f17]
cluster at.itkollegimst.Hain.pos1makro.test2.buchhandlung.application.internal.commandservices--><polygon fill="#FFFFFF" filter="url(#f1h8s4jsqq8k55)" points="3587.5,7.5,4381.25,7.5,4390,37.0117,4393.75,37.0117,4393.75,185,3587.5,185,3587.5,7.5" style="stroke:#000000;stroke-width:1.875;"/><line style="stroke:#000000;stroke-width:1.875;" x1="3587.5" x2="4390" y1="37.0117" y2="37.0117"/><text fill="#000000" font-family="sans-serif" font-size="17.5" font-weight="bold" lengthAdjust="spacing" textLength="786.25" x="3592.5" y="28.1665">at.itkollegimst.Hain.pos1makro.test2.buchhandlung.application.internal.commandservices</text><!--MD5=[307563333ee66ccfc82721d61a8ac982]
cluster at.itkollegimst.Hain.pos1makro.test2.buchhandlung.infrastructure.brokers.rabittmq--><polygon fill="#FFFFFF" filter="url(#f1h8s4jsqq8k55)" points="4423.75,7.5,5156.25,7.5,5165,37.0117,5168.75,37.0117,5168.75,185,4423.75,185,4423.75,7.5" style="stroke:#000000;stroke-width:1.875;"/><line style="stroke:#000000;stroke-width:1.875;" x1="4423.75" x2="5165" y1="37.0117" y2="37.0117"/><text fill="#000000" font-family="sans-serif" font-size="17.5" font-weight="bold" lengthAdjust="spacing" textLength="725" x="4428.75" y="28.1665">at.itkollegimst.Hain.pos1makro.test2.buchhandlung.infrastructure.brokers.rabittmq</text><!--MD5=[03635057d6a53ec00dd6ae8f16fdc9ff]
cluster at.itkollegimst.Hain.pos1makro.test2.buchhandlung.interfaces.events--><polygon fill="#FFFFFF" filter="url(#f1h8s4jsqq8k55)" points="5198.75,16.25,5813.75,16.25,5822.5,45.7617,5826.25,45.7617,5826.25,176.25,5198.75,176.25,5198.75,16.25" style="stroke:#000000;stroke-width:1.875;"/><line style="stroke:#000000;stroke-width:1.875;" x1="5198.75" x2="5822.5" y1="45.7617" y2="45.7617"/><text fill="#000000" font-family="sans-serif" font-size="17.5" font-weight="bold" lengthAdjust="spacing" textLength="607.5" x="5203.75" y="36.9165">at.itkollegimst.Hain.pos1makro.test2.buchhandlung.interfaces.events</text><!--MD5=[2d8bde6c8d5901c5a341abd2867955ed]
cluster at.itkollegimst.Hain.pos1makro.test2.buchhandlung.interfaces.rest--><polygon fill="#FFFFFF" filter="url(#f1h8s4jsqq8k55)" points="5856.25,7.5,6445,7.5,6453.75,37.0117,6457.5,37.0117,6457.5,185,5856.25,185,5856.25,7.5" style="stroke:#000000;stroke-width:1.875;"/><line style="stroke:#000000;stroke-width:1.875;" x1="5856.25" x2="6453.75" y1="37.0117" y2="37.0117"/><text fill="#000000" font-family="sans-serif" font-size="17.5" font-weight="bold" lengthAdjust="spacing" textLength="581.25" x="5861.25" y="28.1665">at.itkollegimst.Hain.pos1makro.test2.buchhandlung.interfaces.rest</text><!--MD5=[399b68e8a9a77cf1bf61376e5f460ed4]
cluster org.springframework.data.domain--><polygon fill="#FFFFFF" filter="url(#f1h8s4jsqq8k55)" points="20,33.75,322.5,33.75,331.25,63.2617,335,63.2617,335,158.75,20,158.75,20,33.75" style="stroke:#000000;stroke-width:1.875;"/><line style="stroke:#000000;stroke-width:1.875;" x1="20" x2="331.25" y1="63.2617" y2="63.2617"/><text fill="#000000" font-family="sans-serif" font-size="17.5" font-weight="bold" lengthAdjust="spacing" textLength="295" x="25" y="54.4165">org.springframework.data.domain</text><!--MD5=[cd09a31e374d3ba35fd45e1567298dba]
cluster org.springframework.data.jpa.repository--><polygon fill="#FFFFFF" filter="url(#f1h8s4jsqq8k55)" points="1126.25,33.75,1486.25,33.75,1495,63.2617,1498.75,63.2617,1498.75,158.75,1126.25,158.75,1126.25,33.75" style="stroke:#000000;stroke-width:1.875;"/><line style="stroke:#000000;stroke-width:1.875;" x1="1126.25" x2="1495" y1="63.2617" y2="63.2617"/><text fill="#000000" font-family="sans-serif" font-size="17.5" font-weight="bold" lengthAdjust="spacing" textLength="352.5" x="1131.25" y="54.4165">org.springframework.data.jpa.repository</text><!--MD5=[0d852700fdad35b7061d461d6907a324]
cluster java.io--><polygon fill="#FFFFFF" filter="url(#f1h8s4jsqq8k55)" points="373.75,33.75,438.75,33.75,447.5,63.2617,533.75,63.2617,533.75,158.75,373.75,158.75,373.75,33.75" style="stroke:#000000;stroke-width:1.875;"/><line style="stroke:#000000;stroke-width:1.875;" x1="373.75" x2="447.5" y1="63.2617" y2="63.2617"/><text fill="#000000" font-family="sans-serif" font-size="17.5" font-weight="bold" lengthAdjust="spacing" textLength="57.5" x="378.75" y="54.4165">java.io</text><!--MD5=[d50028176656434cc09efffa9e948da0]
class at.itkollegimst.Hain.pos1makro.test2.buchhandlung.domain.model.aggregates.Bestellung--><rect codeLine="1" fill="#FEFECE" filter="url(#f1h8s4jsqq8k55)" height="215.6543" id="at.itkollegimst.Hain.pos1makro.test2.buchhandlung.domain.model.aggregates.Bestellung" style="stroke:#A80036;stroke-width:1.875;" width="230" x="92.5" y="260"/><ellipse cx="165.3125" cy="280" fill="#ADD1B2" rx="13.75" ry="13.75" style="stroke:#A80036;stroke-width:1.25;"/><path d="M167.8125,275.625 Q168.0664,275 168.3594,274.6875 Q168.6523,274.375 168.9844,274.375 Q169.5703,274.375 169.9414,274.7266 Q170.3125,275.0781 170.3125,275.8984 L170.3125,277.8516 Q170.3125,278.6719 169.9609,279.0234 Q169.6094,279.375 169.0625,279.375 Q168.5742,279.375 168.2617,279.1602 Q167.9492,278.9453 167.8125,278.3789 Q167.7539,277.9883 167.5391,277.7734 Q167.1484,277.3633 166.4453,277.1289 Q165.7422,276.875 165.0391,276.875 Q164.1602,276.875 163.418,277.2266 Q162.6953,277.5781 162.1289,278.3594 Q161.5625,279.1406 161.5625,280.2148 L161.5625,281.3672 Q161.5625,282.6563 162.6172,283.5156 Q163.6719,284.375 165.5469,284.375 Q166.6602,284.375 167.4414,284.1211 Q167.8906,283.9844 168.3984,283.5352 Q168.7305,283.2813 168.9063,283.2031 Q169.082,283.125 169.2969,283.125 Q169.707,283.125 170,283.457 Q170.3125,283.7695 170.3125,284.2188 Q170.3125,284.6484 169.8828,285.1563 Q169.2578,285.8984 168.2617,286.3086 Q166.9531,286.875 165.3516,286.875 Q163.4766,286.875 161.9727,286.1328 Q160.7617,285.5469 159.9023,284.2773 Q159.0625,283.0078 159.0625,281.5039 L159.0625,280.1367 Q159.0625,278.5742 159.8047,277.207 Q160.5664,275.8398 161.875,275.1172 Q163.2031,274.375 164.6875,274.375 Q165.5859,274.375 166.3672,274.6875 Q167.1484,275 167.8125,275.625 Z " fill="#000000"/><text fill="#000000" font-family="sans-serif" font-size="15" lengthAdjust="spacing" textLength="73.75" x="190.9375" y="286.1377">Bestellung</text><line style="stroke:#A80036;stroke-width:1.875;" x1="93.75" x2="321.25" y1="300" y2="300"/><rect fill="none" height="7.5" style="stroke:#C82930;stroke-width:1.25;" width="7.5" x="102.5" y="310"/><text fill="#000000" font-family="sans-serif" font-size="13.75" lengthAdjust="spacing" textLength="43.75" x="117.5" y="319.2737">Long id</text><rect fill="none" height="7.5" style="stroke:#C82930;stroke-width:1.25;" width="7.5" x="102.5" y="327.2949"/><text fill="#000000" font-family="sans-serif" font-size="13.75" lengthAdjust="spacing" textLength="142.5" x="117.5" y="336.5686">BestellungStatus status</text><rect fill="none" height="7.5" style="stroke:#C82930;stroke-width:1.25;" width="7.5" x="102.5" y="344.5898"/><text fill="#000000" font-family="sans-serif" font-size="13.75" lengthAdjust="spacing" textLength="102.5" x="117.5" y="353.8635">Bestellid bestellid</text><line style="stroke:#A80036;stroke-width:1.875;" x1="93.75" x2="321.25" y1="361.8848" y2="361.8848"/><ellipse cx="106.25" cy="375.6348" fill="#84BE84" rx="3.75" ry="3.75" style="stroke:#038048;stroke-width:1.25;"/><text fill="#000000" font-family="sans-serif" font-size="13.75" lengthAdjust="spacing" textLength="117.5" x="117.5" y="381.1584">String getBestellid()</text><ellipse cx="106.25" cy="392.9297" fill="#84BE84" rx="3.75" ry="3.75" style="stroke:#038048;stroke-width:1.25;"/><text fill="#000000" font-family="sans-serif" font-size="13.75" lengthAdjust="spacing" textLength="157.5" x="117.5" y="398.4534">void setBestellid(Bestellid)</text><ellipse cx="106.25" cy="410.2246" fill="#84BE84" rx="3.75" ry="3.75" style="stroke:#038048;stroke-width:1.25;"/><text fill="#000000" font-family="sans-serif" font-size="13.75" lengthAdjust="spacing" textLength="177.5" x="117.5" y="415.7483">void addDomainEvent(Object)</text><ellipse cx="106.25" cy="427.5195" fill="#84BE84" rx="3.75" ry="3.75" style="stroke:#038048;stroke-width:1.25;"/><text fill="#000000" font-family="sans-serif" font-size="13.75" lengthAdjust="spacing" textLength="97.5" x="117.5" y="433.0432">void setId(Long)</text><ellipse cx="106.25" cy="444.8145" fill="#84BE84" rx="3.75" ry="3.75" style="stroke:#038048;stroke-width:1.25;"/><text fill="#000000" font-family="sans-serif" font-size="13.75" lengthAdjust="spacing" textLength="172.5" x="117.5" y="450.3381">BestellungStatus getStatus()</text><ellipse cx="106.25" cy="462.1094" fill="#84BE84" rx="3.75" ry="3.75" style="stroke:#038048;stroke-width:1.25;"/><text fill="#000000" font-family="sans-serif" font-size="13.75" lengthAdjust="spacing" textLength="197.5" x="117.5" y="467.6331">void setStatus(BestellungStatus)</text><!--MD5=[630d9c7da1db632dbc587a4107944c24]
class at.itkollegimst.Hain.pos1makro.test2.buchhandlung.domain.model.aggregates.Bestellid--><rect codeLine="35" fill="#FEFECE" filter="url(#f1h8s4jsqq8k55)" height="111.8848" id="at.itkollegimst.Hain.pos1makro.test2.buchhandlung.domain.model.aggregates.Bestellid" style="stroke:#A80036;stroke-width:1.875;" width="175" x="366.25" y="311.875"/><ellipse cx="418.75" cy="331.875" fill="#ADD1B2" rx="13.75" ry="13.75" style="stroke:#A80036;stroke-width:1.25;"/><path d="M421.25,327.5 Q421.5039,326.875 421.7969,326.5625 Q422.0898,326.25 422.4219,326.25 Q423.0078,326.25 423.3789,326.6016 Q423.75,326.9531 423.75,327.7734 L423.75,329.7266 Q423.75,330.5469 423.3984,330.8984 Q423.0469,331.25 422.5,331.25 Q422.0117,331.25 421.6992,331.0352 Q421.3867,330.8203 421.25,330.2539 Q421.1914,329.8633 420.9766,329.6484 Q420.5859,329.2383 419.8828,329.0039 Q419.1797,328.75 418.4766,328.75 Q417.5977,328.75 416.8555,329.1016 Q416.1328,329.4531 415.5664,330.2344 Q415,331.0156 415,332.0898 L415,333.2422 Q415,334.5313 416.0547,335.3906 Q417.1094,336.25 418.9844,336.25 Q420.0977,336.25 420.8789,335.9961 Q421.3281,335.8594 421.8359,335.4102 Q422.168,335.1563 422.3438,335.0781 Q422.5195,335 422.7344,335 Q423.1445,335 423.4375,335.332 Q423.75,335.6445 423.75,336.0938 Q423.75,336.5234 423.3203,337.0313 Q422.6953,337.7734 421.6992,338.1836 Q420.3906,338.75 418.7891,338.75 Q416.9141,338.75 415.4102,338.0078 Q414.1992,337.4219 413.3398,336.1523 Q412.5,334.8828 412.5,333.3789 L412.5,332.0117 Q412.5,330.4492 413.2422,329.082 Q414.0039,327.7148 415.3125,326.9922 Q416.6406,326.25 418.125,326.25 Q419.0234,326.25 419.8047,326.5625 Q420.5859,326.875 421.25,327.5 Z " fill="#000000"/><text fill="#000000" font-family="sans-serif" font-size="15" lengthAdjust="spacing" textLength="60" x="443.75" y="338.0127">Bestellid</text><line style="stroke:#A80036;stroke-width:1.875;" x1="367.5" x2="540" y1="351.875" y2="351.875"/><rect fill="none" height="7.5" style="stroke:#C82930;stroke-width:1.25;" width="7.5" x="376.25" y="361.875"/><text fill="#000000" font-family="sans-serif" font-size="13.75" lengthAdjust="spacing" textLength="87.5" x="391.25" y="371.1487">String bestellid</text><line style="stroke:#A80036;stroke-width:1.875;" x1="367.5" x2="540" y1="379.1699" y2="379.1699"/><ellipse cx="380" cy="392.9199" fill="#84BE84" rx="3.75" ry="3.75" style="stroke:#038048;stroke-width:1.25;"/><text fill="#000000" font-family="sans-serif" font-size="13.75" lengthAdjust="spacing" textLength="142.5" x="391.25" y="398.4436">void setBestellid(String)</text><ellipse cx="380" cy="410.2148" fill="#84BE84" rx="3.75" ry="3.75" style="stroke:#038048;stroke-width:1.25;"/><text fill="#000000" font-family="sans-serif" font-size="13.75" lengthAdjust="spacing" textLength="117.5" x="391.25" y="415.7385">String getBestellid()</text><!--MD5=[6f9140c69cf68e85a2e623d27c0b1802]
class at.itkollegimst.Hain.pos1makro.test2.shareddomain.events.BuchBestelltEvent--><rect codeLine="12" fill="#FEFECE" filter="url(#f1h8s4jsqq8k55)" height="111.8848" id="at.itkollegimst.Hain.pos1makro.test2.shareddomain.events.BuchBestelltEvent" style="stroke:#A80036;stroke-width:1.875;" width="175" x="892.5" y="52.5"/><ellipse cx="916.3125" cy="72.5" fill="#ADD1B2" rx="13.75" ry="13.75" style="stroke:#A80036;stroke-width:1.25;"/><path d="M918.8125,68.125 Q919.0664,67.5 919.3594,67.1875 Q919.6523,66.875 919.9844,66.875 Q920.5703,66.875 920.9414,67.2266 Q921.3125,67.5781 921.3125,68.3984 L921.3125,70.3516 Q921.3125,71.1719 920.9609,71.5234 Q920.6094,71.875 920.0625,71.875 Q919.5742,71.875 919.2617,71.6602 Q918.9492,71.4453 918.8125,70.8789 Q918.7539,70.4883 918.5391,70.2734 Q918.1484,69.8633 917.4453,69.6289 Q916.7422,69.375 916.0391,69.375 Q915.1602,69.375 914.418,69.7266 Q913.6953,70.0781 913.1289,70.8594 Q912.5625,71.6406 912.5625,72.7148 L912.5625,73.8672 Q912.5625,75.1563 913.6172,76.0156 Q914.6719,76.875 916.5469,76.875 Q917.6602,76.875 918.4414,76.6211 Q918.8906,76.4844 919.3984,76.0352 Q919.7305,75.7813 919.9063,75.7031 Q920.082,75.625 920.2969,75.625 Q920.707,75.625 921,75.957 Q921.3125,76.2695 921.3125,76.7188 Q921.3125,77.1484 920.8828,77.6563 Q920.2578,78.3984 919.2617,78.8086 Q917.9531,79.375 916.3516,79.375 Q914.4766,79.375 912.9727,78.6328 Q911.7617,78.0469 910.9023,76.7773 Q910.0625,75.5078 910.0625,74.0039 L910.0625,72.6367 Q910.0625,71.0742 910.8047,69.707 Q911.5664,68.3398 912.875,67.6172 Q914.2031,66.875 915.6875,66.875 Q916.5859,66.875 917.3672,67.1875 Q918.1484,67.5 918.8125,68.125 Z " fill="#000000"/><text fill="#000000" font-family="sans-serif" font-size="15" lengthAdjust="spacing" textLength="123.75" x="934.9375" y="78.6377">BuchBestelltEvent</text><line style="stroke:#A80036;stroke-width:1.875;" x1="893.75" x2="1066.25" y1="92.5" y2="92.5"/><rect fill="none" height="7.5" style="stroke:#C82930;stroke-width:1.25;" width="7.5" x="902.5" y="102.5"/><text fill="#000000" font-family="sans-serif" font-size="13.75" lengthAdjust="spacing" textLength="87.5" x="917.5" y="111.7737">String bestellid</text><line style="stroke:#A80036;stroke-width:1.875;" x1="893.75" x2="1066.25" y1="119.7949" y2="119.7949"/><ellipse cx="906.25" cy="133.5449" fill="#84BE84" rx="3.75" ry="3.75" style="stroke:#038048;stroke-width:1.25;"/><text fill="#000000" font-family="sans-serif" font-size="13.75" lengthAdjust="spacing" textLength="117.5" x="917.5" y="139.0686">String getBestellid()</text><ellipse cx="906.25" cy="150.8398" fill="#84BE84" rx="3.75" ry="3.75" style="stroke:#038048;stroke-width:1.25;"/><text fill="#000000" font-family="sans-serif" font-size="13.75" lengthAdjust="spacing" textLength="142.5" x="917.5" y="156.3635">void setBestellid(String)</text><!--MD5=[8904682c7b2a76f9221699df56bb9635]
class at.itkollegimst.Hain.pos1makro.test2.shareddomain.events.BuchdruckAbgeschlossenEvent--><rect codeLine="30" fill="#FEFECE" filter="url(#f1h8s4jsqq8k55)" height="111.8848" id="at.itkollegimst.Hain.pos1makro.test2.shareddomain.events.BuchdruckAbgeschlossenEvent" style="stroke:#A80036;stroke-width:1.875;" width="257.5" x="591.25" y="52.5"/><ellipse cx="610" cy="72.5" fill="#ADD1B2" rx="13.75" ry="13.75" style="stroke:#A80036;stroke-width:1.25;"/><path d="M612.5,68.125 Q612.7539,67.5 613.0469,67.1875 Q613.3398,66.875 613.6719,66.875 Q614.2578,66.875 614.6289,67.2266 Q615,67.5781 615,68.3984 L615,70.3516 Q615,71.1719 614.6484,71.5234 Q614.2969,71.875 613.75,71.875 Q613.2617,71.875 612.9492,71.6602 Q612.6367,71.4453 612.5,70.8789 Q612.4414,70.4883 612.2266,70.2734 Q611.8359,69.8633 611.1328,69.6289 Q610.4297,69.375 609.7266,69.375 Q608.8477,69.375 608.1055,69.7266 Q607.3828,70.0781 606.8164,70.8594 Q606.25,71.6406 606.25,72.7148 L606.25,73.8672 Q606.25,75.1563 607.3047,76.0156 Q608.3594,76.875 610.2344,76.875 Q611.3477,76.875 612.1289,76.6211 Q612.5781,76.4844 613.0859,76.0352 Q613.418,75.7813 613.5938,75.7031 Q613.7695,75.625 613.9844,75.625 Q614.3945,75.625 614.6875,75.957 Q615,76.2695 615,76.7188 Q615,77.1484 614.5703,77.6563 Q613.9453,78.3984 612.9492,78.8086 Q611.6406,79.375 610.0391,79.375 Q608.1641,79.375 606.6602,78.6328 Q605.4492,78.0469 604.5898,76.7773 Q603.75,75.5078 603.75,74.0039 L603.75,72.6367 Q603.75,71.0742 604.4922,69.707 Q605.2539,68.3398 606.5625,67.6172 Q607.8906,66.875 609.375,66.875 Q610.2734,66.875 611.0547,67.1875 Q611.8359,67.5 612.5,68.125 Z " fill="#000000"/><text fill="#000000" font-family="sans-serif" font-size="15" lengthAdjust="spacing" textLength="217.5" x="627.5" y="78.6377">BuchdruckAbgeschlossenEvent</text><line style="stroke:#A80036;stroke-width:1.875;" x1="592.5" x2="847.5" y1="92.5" y2="92.5"/><rect fill="none" height="7.5" style="stroke:#C82930;stroke-width:1.25;" width="7.5" x="601.25" y="102.5"/><text fill="#000000" font-family="sans-serif" font-size="13.75" lengthAdjust="spacing" textLength="87.5" x="616.25" y="111.7737">String bestellid</text><line style="stroke:#A80036;stroke-width:1.875;" x1="592.5" x2="847.5" y1="119.7949" y2="119.7949"/><ellipse cx="605" cy="133.5449" fill="#84BE84" rx="3.75" ry="3.75" style="stroke:#038048;stroke-width:1.25;"/><text fill="#000000" font-family="sans-serif" font-size="13.75" lengthAdjust="spacing" textLength="117.5" x="616.25" y="139.0686">String getBestellid()</text><ellipse cx="605" cy="150.8398" fill="#84BE84" rx="3.75" ry="3.75" style="stroke:#038048;stroke-width:1.25;"/><text fill="#000000" font-family="sans-serif" font-size="13.75" lengthAdjust="spacing" textLength="142.5" x="616.25" y="156.3635">void setBestellid(String)</text><!--MD5=[f11f2173faed35ffab6d817ad0294380]
class at.itkollegimst.Hain.pos1makro.test2.buchhandlung.infrastructure.repository.jpa.BestellungRepository--><rect codeLine="17" fill="#FEFECE" filter="url(#f1h8s4jsqq8k55)" height="94.5898" id="at.itkollegimst.Hain.pos1makro.test2.buchhandlung.infrastructure.repository.jpa.BestellungRepository" style="stroke:#A80036;stroke-width:1.875;" width="306.25" x="1159.375" y="320.625"/><ellipse cx="1234.0625" cy="340.625" fill="#B4A7E5" rx="13.75" ry="13.75" style="stroke:#A80036;stroke-width:1.25;"/><path d="M1235.3125,336.875 L1235.3125,344.375 L1237.8125,344.375 L1238.418,344.375 L1239.0625,345.1563 L1239.0625,345.625 L1239.0625,346.0938 L1238.418,346.875 L1237.8125,346.875 L1230.3125,346.875 L1229.707,346.875 L1229.0625,346.0938 L1229.0625,345.625 L1229.0625,345.1563 L1229.707,344.375 L1230.3125,344.375 L1232.8125,344.375 L1232.8125,336.875 L1230.3125,336.875 L1229.707,336.875 L1229.0625,336.0938 L1229.0625,335.625 L1229.0625,335.1563 L1229.707,334.375 L1230.3125,334.375 L1237.8125,334.375 L1238.418,334.375 L1239.0625,335.1563 L1239.0625,335.625 L1239.0625,336.0938 L1238.418,336.875 L1237.8125,336.875 L1235.3125,336.875 Z " fill="#000000"/><text fill="#000000" font-family="sans-serif" font-size="15" font-style="italic" lengthAdjust="spacing" textLength="146.25" x="1259.6875" y="346.7627">BestellungRepository</text><line style="stroke:#A80036;stroke-width:1.875;" x1="1160.625" x2="1464.375" y1="360.625" y2="360.625"/><line style="stroke:#A80036;stroke-width:1.875;" x1="1160.625" x2="1464.375" y1="370.625" y2="370.625"/><polygon fill="#4177AF" points="1173.125,379.375,1168.125,386.875,1178.125,386.875" style="stroke:#1963A0;stroke-width:1.25;"/><text fill="#000000" font-family="sans-serif" font-size="13.75" lengthAdjust="spacing" textLength="273.75" x="1184.375" y="389.8987">void updateStatus(BestellungStatus,Bestellid)</text><polygon fill="#4177AF" points="1173.125,396.6699,1168.125,404.1699,1178.125,404.1699" style="stroke:#1963A0;stroke-width:1.25;"/><text fill="#000000" font-family="sans-serif" font-size="13.75" lengthAdjust="spacing" textLength="150" x="1184.375" y="407.1936">List&lt;Bestellung&gt; findAll()</text><!--MD5=[185dee2713256064aea5508a6cff58c8]
class at.itkollegimst.Hain.pos1makro.test2.buchhandlung.application.internal.outboundservices.BestellungEventPublisherService--><rect codeLine="21" fill="#FEFECE" filter="url(#f1h8s4jsqq8k55)" height="94.5898" id="at.itkollegimst.Hain.pos1makro.test2.buchhandlung.application.internal.outboundservices.BestellungEventPublisherService" style="stroke:#A80036;stroke-width:1.875;" width="328.75" x="1768.125" y="61.25"/><ellipse cx="1814.4375" cy="81.25" fill="#ADD1B2" rx="13.75" ry="13.75" style="stroke:#A80036;stroke-width:1.25;"/><path d="M1816.9375,76.875 Q1817.1914,76.25 1817.4844,75.9375 Q1817.7773,75.625 1818.1094,75.625 Q1818.6953,75.625 1819.0664,75.9766 Q1819.4375,76.3281 1819.4375,77.1484 L1819.4375,79.1016 Q1819.4375,79.9219 1819.0859,80.2734 Q1818.7344,80.625 1818.1875,80.625 Q1817.6992,80.625 1817.3867,80.4102 Q1817.0742,80.1953 1816.9375,79.6289 Q1816.8789,79.2383 1816.6641,79.0234 Q1816.2734,78.6133 1815.5703,78.3789 Q1814.8672,78.125 1814.1641,78.125 Q1813.2852,78.125 1812.543,78.4766 Q1811.8203,78.8281 1811.2539,79.6094 Q1810.6875,80.3906 1810.6875,81.4648 L1810.6875,82.6172 Q1810.6875,83.9063 1811.7422,84.7656 Q1812.7969,85.625 1814.6719,85.625 Q1815.7852,85.625 1816.5664,85.3711 Q1817.0156,85.2344 1817.5234,84.7852 Q1817.8555,84.5313 1818.0313,84.4531 Q1818.207,84.375 1818.4219,84.375 Q1818.832,84.375 1819.125,84.707 Q1819.4375,85.0195 1819.4375,85.4688 Q1819.4375,85.8984 1819.0078,86.4063 Q1818.3828,87.1484 1817.3867,87.5586 Q1816.0781,88.125 1814.4766,88.125 Q1812.6016,88.125 1811.0977,87.3828 Q1809.8867,86.7969 1809.0273,85.5273 Q1808.1875,84.2578 1808.1875,82.7539 L1808.1875,81.3867 Q1808.1875,79.8242 1808.9297,78.457 Q1809.6914,77.0898 1811,76.3672 Q1812.3281,75.625 1813.8125,75.625 Q1814.7109,75.625 1815.4922,75.9375 Q1816.2734,76.25 1816.9375,76.875 Z " fill="#000000"/><text fill="#000000" font-family="sans-serif" font-size="15" lengthAdjust="spacing" textLength="227.5" x="1838.0625" y="87.3877">BestellungEventPublisherService</text><line style="stroke:#A80036;stroke-width:1.875;" x1="1769.375" x2="2095.625" y1="101.25" y2="101.25"/><rect fill="none" height="7.5" style="stroke:#C82930;stroke-width:1.25;" width="7.5" x="1778.125" y="111.25"/><text fill="#000000" font-family="sans-serif" font-size="13.75" lengthAdjust="spacing" textLength="282.5" x="1793.125" y="120.5237">BestellungEventSource bestellungEventSource</text><line style="stroke:#A80036;stroke-width:1.875;" x1="1769.375" x2="2095.625" y1="128.5449" y2="128.5449"/><ellipse cx="1781.875" cy="142.2949" fill="#84BE84" rx="3.75" ry="3.75" style="stroke:#038048;stroke-width:1.25;"/><text fill="#000000" font-family="sans-serif" font-size="13.75" lengthAdjust="spacing" textLength="296.25" x="1793.125" y="147.8186">void handleBuchBestelltEvent(BuchBestelltEvent)</text><!--MD5=[489bd60a13eaaf7714bfc091cbeb8f08]
class at.itkollegimst.Hain.pos1makro.test2.buchhandlung.domain.model.commands.BuchBestellCommand--><rect codeLine="25" fill="#FEFECE" filter="url(#f1h8s4jsqq8k55)" height="111.8848" id="at.itkollegimst.Hain.pos1makro.test2.buchhandlung.domain.model.commands.BuchBestellCommand" style="stroke:#A80036;stroke-width:1.875;" width="196.25" x="2614.375" y="52.5"/><ellipse cx="2633.125" cy="72.5" fill="#ADD1B2" rx="13.75" ry="13.75" style="stroke:#A80036;stroke-width:1.25;"/><path d="M2635.625,68.125 Q2635.8789,67.5 2636.1719,67.1875 Q2636.4648,66.875 2636.7969,66.875 Q2637.3828,66.875 2637.7539,67.2266 Q2638.125,67.5781 2638.125,68.3984 L2638.125,70.3516 Q2638.125,71.1719 2637.7734,71.5234 Q2637.4219,71.875 2636.875,71.875 Q2636.3867,71.875 2636.0742,71.6602 Q2635.7617,71.4453 2635.625,70.8789 Q2635.5664,70.4883 2635.3516,70.2734 Q2634.9609,69.8633 2634.2578,69.6289 Q2633.5547,69.375 2632.8516,69.375 Q2631.9727,69.375 2631.2305,69.7266 Q2630.5078,70.0781 2629.9414,70.8594 Q2629.375,71.6406 2629.375,72.7148 L2629.375,73.8672 Q2629.375,75.1563 2630.4297,76.0156 Q2631.4844,76.875 2633.3594,76.875 Q2634.4727,76.875 2635.2539,76.6211 Q2635.7031,76.4844 2636.2109,76.0352 Q2636.543,75.7813 2636.7188,75.7031 Q2636.8945,75.625 2637.1094,75.625 Q2637.5195,75.625 2637.8125,75.957 Q2638.125,76.2695 2638.125,76.7188 Q2638.125,77.1484 2637.6953,77.6563 Q2637.0703,78.3984 2636.0742,78.8086 Q2634.7656,79.375 2633.1641,79.375 Q2631.2891,79.375 2629.7852,78.6328 Q2628.5742,78.0469 2627.7148,76.7773 Q2626.875,75.5078 2626.875,74.0039 L2626.875,72.6367 Q2626.875,71.0742 2627.6172,69.707 Q2628.3789,68.3398 2629.6875,67.6172 Q2631.0156,66.875 2632.5,66.875 Q2633.3984,66.875 2634.1797,67.1875 Q2634.9609,67.5 2635.625,68.125 Z " fill="#000000"/><text fill="#000000" font-family="sans-serif" font-size="15" lengthAdjust="spacing" textLength="156.25" x="2650.625" y="78.6377">BuchBestellCommand</text><line style="stroke:#A80036;stroke-width:1.875;" x1="2615.625" x2="2809.375" y1="92.5" y2="92.5"/><rect fill="none" height="7.5" style="stroke:#C82930;stroke-width:1.25;" width="7.5" x="2624.375" y="102.5"/><text fill="#000000" font-family="sans-serif" font-size="13.75" lengthAdjust="spacing" textLength="87.5" x="2639.375" y="111.7737">String bestellid</text><line style="stroke:#A80036;stroke-width:1.875;" x1="2615.625" x2="2809.375" y1="119.7949" y2="119.7949"/><ellipse cx="2628.125" cy="133.5449" fill="#84BE84" rx="3.75" ry="3.75" style="stroke:#038048;stroke-width:1.25;"/><text fill="#000000" font-family="sans-serif" font-size="13.75" lengthAdjust="spacing" textLength="142.5" x="2639.375" y="139.0686">void setBestellid(String)</text><ellipse cx="2628.125" cy="150.8398" fill="#84BE84" rx="3.75" ry="3.75" style="stroke:#038048;stroke-width:1.25;"/><text fill="#000000" font-family="sans-serif" font-size="13.75" lengthAdjust="spacing" textLength="117.5" x="2639.375" y="156.3635">String getBestellid()</text><!--MD5=[a1a15e8fe69c9cb2c7846e6d3cbae0a0]
class at.itkollegimst.Hain.pos1makro.test2.buchhandlung.BuchhandlungApplication--><rect codeLine="40" fill="#FEFECE" filter="url(#f1h8s4jsqq8k55)" height="77.2949" id="at.itkollegimst.Hain.pos1makro.test2.buchhandlung.BuchhandlungApplication" style="stroke:#A80036;stroke-width:1.875;" width="215" x="3216.25" y="70"/><ellipse cx="3235" cy="90" fill="#ADD1B2" rx="13.75" ry="13.75" style="stroke:#A80036;stroke-width:1.25;"/><path d="M3237.5,85.625 Q3237.7539,85 3238.0469,84.6875 Q3238.3398,84.375 3238.6719,84.375 Q3239.2578,84.375 3239.6289,84.7266 Q3240,85.0781 3240,85.8984 L3240,87.8516 Q3240,88.6719 3239.6484,89.0234 Q3239.2969,89.375 3238.75,89.375 Q3238.2617,89.375 3237.9492,89.1602 Q3237.6367,88.9453 3237.5,88.3789 Q3237.4414,87.9883 3237.2266,87.7734 Q3236.8359,87.3633 3236.1328,87.1289 Q3235.4297,86.875 3234.7266,86.875 Q3233.8477,86.875 3233.1055,87.2266 Q3232.3828,87.5781 3231.8164,88.3594 Q3231.25,89.1406 3231.25,90.2148 L3231.25,91.3672 Q3231.25,92.6563 3232.3047,93.5156 Q3233.3594,94.375 3235.2344,94.375 Q3236.3477,94.375 3237.1289,94.1211 Q3237.5781,93.9844 3238.0859,93.5352 Q3238.418,93.2813 3238.5938,93.2031 Q3238.7695,93.125 3238.9844,93.125 Q3239.3945,93.125 3239.6875,93.457 Q3240,93.7695 3240,94.2188 Q3240,94.6484 3239.5703,95.1563 Q3238.9453,95.8984 3237.9492,96.3086 Q3236.6406,96.875 3235.0391,96.875 Q3233.1641,96.875 3231.6602,96.1328 Q3230.4492,95.5469 3229.5898,94.2773 Q3228.75,93.0078 3228.75,91.5039 L3228.75,90.1367 Q3228.75,88.5742 3229.4922,87.207 Q3230.2539,85.8398 3231.5625,85.1172 Q3232.8906,84.375 3234.375,84.375 Q3235.2734,84.375 3236.0547,84.6875 Q3236.8359,85 3237.5,85.625 Z " fill="#000000"/><text fill="#000000" font-family="sans-serif" font-size="15" lengthAdjust="spacing" textLength="175" x="3252.5" y="96.1377">BuchhandlungApplication</text><line style="stroke:#A80036;stroke-width:1.875;" x1="3217.5" x2="3430" y1="110" y2="110"/><line style="stroke:#A80036;stroke-width:1.875;" x1="3217.5" x2="3430" y1="120" y2="120"/><ellipse cx="3230" cy="133.75" fill="#84BE84" rx="3.75" ry="3.75" style="stroke:#038048;stroke-width:1.25;"/><text fill="#000000" font-family="sans-serif" font-size="13.75" lengthAdjust="spacing" text-decoration="underline" textLength="108.75" x="3241.25" y="139.2737">void main(String[])</text><!--MD5=[eb13c0e94b8ce8a454f2dbe88026c587]
class at.itkollegimst.Hain.pos1makro.test2.buchhandlung.application.internal.commandservices.BuchBestellungCommandService--><rect codeLine="43" fill="#FEFECE" filter="url(#f1h8s4jsqq8k55)" height="111.8848" id="at.itkollegimst.Hain.pos1makro.test2.buchhandlung.application.internal.commandservices.BuchBestellungCommandService" style="stroke:#A80036;stroke-width:1.875;" width="290" x="4040" y="52.5"/><ellipse cx="4066.625" cy="72.5" fill="#ADD1B2" rx="13.75" ry="13.75" style="stroke:#A80036;stroke-width:1.25;"/><path d="M4069.125,68.125 Q4069.3789,67.5 4069.6719,67.1875 Q4069.9648,66.875 4070.2969,66.875 Q4070.8828,66.875 4071.2539,67.2266 Q4071.625,67.5781 4071.625,68.3984 L4071.625,70.3516 Q4071.625,71.1719 4071.2734,71.5234 Q4070.9219,71.875 4070.375,71.875 Q4069.8867,71.875 4069.5742,71.6602 Q4069.2617,71.4453 4069.125,70.8789 Q4069.0664,70.4883 4068.8516,70.2734 Q4068.4609,69.8633 4067.7578,69.6289 Q4067.0547,69.375 4066.3516,69.375 Q4065.4727,69.375 4064.7305,69.7266 Q4064.0078,70.0781 4063.4414,70.8594 Q4062.875,71.6406 4062.875,72.7148 L4062.875,73.8672 Q4062.875,75.1563 4063.9297,76.0156 Q4064.9844,76.875 4066.8594,76.875 Q4067.9727,76.875 4068.7539,76.6211 Q4069.2031,76.4844 4069.7109,76.0352 Q4070.043,75.7813 4070.2188,75.7031 Q4070.3945,75.625 4070.6094,75.625 Q4071.0195,75.625 4071.3125,75.957 Q4071.625,76.2695 4071.625,76.7188 Q4071.625,77.1484 4071.1953,77.6563 Q4070.5703,78.3984 4069.5742,78.8086 Q4068.2656,79.375 4066.6641,79.375 Q4064.7891,79.375 4063.2852,78.6328 Q4062.0742,78.0469 4061.2148,76.7773 Q4060.375,75.5078 4060.375,74.0039 L4060.375,72.6367 Q4060.375,71.0742 4061.1172,69.707 Q4061.8789,68.3398 4063.1875,67.6172 Q4064.5156,66.875 4066,66.875 Q4066.8984,66.875 4067.6797,67.1875 Q4068.4609,67.5 4069.125,68.125 Z " fill="#000000"/><text fill="#000000" font-family="sans-serif" font-size="15" lengthAdjust="spacing" textLength="232.5" x="4085.875" y="78.6377">BuchBestellungCommandService</text><line style="stroke:#A80036;stroke-width:1.875;" x1="4041.25" x2="4328.75" y1="92.5" y2="92.5"/><rect fill="none" height="7.5" style="stroke:#C82930;stroke-width:1.25;" width="7.5" x="4050" y="102.5"/><text fill="#000000" font-family="sans-serif" font-size="13.75" lengthAdjust="spacing" textLength="257.5" x="4065" y="111.7737">BestellungRepository bestellungRepository</text><line style="stroke:#A80036;stroke-width:1.875;" x1="4041.25" x2="4328.75" y1="119.7949" y2="119.7949"/><ellipse cx="4053.75" cy="133.5449" fill="#84BE84" rx="3.75" ry="3.75" style="stroke:#038048;stroke-width:1.25;"/><text fill="#000000" font-family="sans-serif" font-size="13.75" lengthAdjust="spacing" textLength="232.5" x="4065" y="139.0686">String bestellen(BuchBestellCommand)</text><ellipse cx="4053.75" cy="150.8398" fill="#84BE84" rx="3.75" ry="3.75" style="stroke:#038048;stroke-width:1.25;"/><text fill="#000000" font-family="sans-serif" font-size="13.75" lengthAdjust="spacing" textLength="143.75" x="4065" y="156.3635">List&lt;Bestellung&gt; listAll()</text><!--MD5=[4461d84f3b5f2ee22747c8995531b615]
class at.itkollegimst.Hain.pos1makro.test2.buchhandlung.application.internal.commandservices.BuchdruckAbgeschlossenCommandService--><rect codeLine="53" fill="#FEFECE" filter="url(#f1h8s4jsqq8k55)" height="94.5898" id="at.itkollegimst.Hain.pos1makro.test2.buchhandlung.application.internal.commandservices.BuchdruckAbgeschlossenCommandService" style="stroke:#A80036;stroke-width:1.875;" width="343.75" x="3651.875" y="61.25"/><ellipse cx="3670.625" cy="81.25" fill="#ADD1B2" rx="13.75" ry="13.75" style="stroke:#A80036;stroke-width:1.25;"/><path d="M3673.125,76.875 Q3673.3789,76.25 3673.6719,75.9375 Q3673.9648,75.625 3674.2969,75.625 Q3674.8828,75.625 3675.2539,75.9766 Q3675.625,76.3281 3675.625,77.1484 L3675.625,79.1016 Q3675.625,79.9219 3675.2734,80.2734 Q3674.9219,80.625 3674.375,80.625 Q3673.8867,80.625 3673.5742,80.4102 Q3673.2617,80.1953 3673.125,79.6289 Q3673.0664,79.2383 3672.8516,79.0234 Q3672.4609,78.6133 3671.7578,78.3789 Q3671.0547,78.125 3670.3516,78.125 Q3669.4727,78.125 3668.7305,78.4766 Q3668.0078,78.8281 3667.4414,79.6094 Q3666.875,80.3906 3666.875,81.4648 L3666.875,82.6172 Q3666.875,83.9063 3667.9297,84.7656 Q3668.9844,85.625 3670.8594,85.625 Q3671.9727,85.625 3672.7539,85.3711 Q3673.2031,85.2344 3673.7109,84.7852 Q3674.043,84.5313 3674.2188,84.4531 Q3674.3945,84.375 3674.6094,84.375 Q3675.0195,84.375 3675.3125,84.707 Q3675.625,85.0195 3675.625,85.4688 Q3675.625,85.8984 3675.1953,86.4063 Q3674.5703,87.1484 3673.5742,87.5586 Q3672.2656,88.125 3670.6641,88.125 Q3668.7891,88.125 3667.2852,87.3828 Q3666.0742,86.7969 3665.2148,85.5273 Q3664.375,84.2578 3664.375,82.7539 L3664.375,81.3867 Q3664.375,79.8242 3665.1172,78.457 Q3665.8789,77.0898 3667.1875,76.3672 Q3668.5156,75.625 3670,75.625 Q3670.8984,75.625 3671.6797,75.9375 Q3672.4609,76.25 3673.125,76.875 Z " fill="#000000"/><text fill="#000000" font-family="sans-serif" font-size="15" lengthAdjust="spacing" textLength="303.75" x="3688.125" y="87.3877">BuchdruckAbgeschlossenCommandService</text><line style="stroke:#A80036;stroke-width:1.875;" x1="3653.125" x2="3994.375" y1="101.25" y2="101.25"/><rect fill="none" height="7.5" style="stroke:#C82930;stroke-width:1.25;" width="7.5" x="3661.875" y="111.25"/><text fill="#000000" font-family="sans-serif" font-size="13.75" lengthAdjust="spacing" textLength="257.5" x="3676.875" y="120.5237">BestellungRepository bestellungRepository</text><line style="stroke:#A80036;stroke-width:1.875;" x1="3653.125" x2="3994.375" y1="128.5449" y2="128.5449"/><ellipse cx="3665.625" cy="142.2949" fill="#84BE84" rx="3.75" ry="3.75" style="stroke:#038048;stroke-width:1.25;"/><text fill="#000000" font-family="sans-serif" font-size="13.75" lengthAdjust="spacing" textLength="198.75" x="3676.875" y="147.8186">void buchWurdeGedruckt(String)</text><!--MD5=[82841b68c4a677f67a8461266a43da68]
class at.itkollegimst.Hain.pos1makro.test2.buchhandlung.infrastructure.brokers.rabittmq.BestellungEventSource--><rect codeLine="48" fill="#FEFECE" filter="url(#f1h8s4jsqq8k55)" height="111.8848" id="at.itkollegimst.Hain.pos1makro.test2.buchhandlung.infrastructure.brokers.rabittmq.BestellungEventSource" style="stroke:#A80036;stroke-width:1.875;" width="381.25" x="4605.625" y="52.5"/><ellipse cx="4710.9375" cy="72.5" fill="#B4A7E5" rx="13.75" ry="13.75" style="stroke:#A80036;stroke-width:1.25;"/><path d="M4712.1875,68.75 L4712.1875,76.25 L4714.6875,76.25 L4715.293,76.25 L4715.9375,77.0313 L4715.9375,77.5 L4715.9375,77.9688 L4715.293,78.75 L4714.6875,78.75 L4707.1875,78.75 L4706.582,78.75 L4705.9375,77.9688 L4705.9375,77.5 L4705.9375,77.0313 L4706.582,76.25 L4707.1875,76.25 L4709.6875,76.25 L4709.6875,68.75 L4707.1875,68.75 L4706.582,68.75 L4705.9375,67.9688 L4705.9375,67.5 L4705.9375,67.0313 L4706.582,66.25 L4707.1875,66.25 L4714.6875,66.25 L4715.293,66.25 L4715.9375,67.0313 L4715.9375,67.5 L4715.9375,67.9688 L4715.293,68.75 L4714.6875,68.75 L4712.1875,68.75 Z " fill="#000000"/><text fill="#000000" font-family="sans-serif" font-size="15" font-style="italic" lengthAdjust="spacing" textLength="160" x="4736.5625" y="78.6377">BestellungEventSource</text><line style="stroke:#A80036;stroke-width:1.875;" x1="4606.875" x2="4985.625" y1="92.5" y2="92.5"/><polygon fill="none" points="4619.375,101.25,4614.375,108.75,4624.375,108.75" style="stroke:#1963A0;stroke-width:1.25;"/><text fill="#000000" font-family="sans-serif" font-size="13.75" lengthAdjust="spacing" textLength="107.5" x="4630.625" y="111.7737">String GEDRUCKT</text><line style="stroke:#A80036;stroke-width:1.875;" x1="4606.875" x2="4985.625" y1="119.7949" y2="119.7949"/><polygon fill="#4177AF" points="4619.375,128.5449,4614.375,136.0449,4624.375,136.0449" style="stroke:#1963A0;stroke-width:1.25;"/><text fill="#000000" font-family="sans-serif" font-size="13.75" lengthAdjust="spacing" textLength="348.75" x="4630.625" y="139.0686">SubscribableChannel buchdruckAbgeschlossenChannel()</text><polygon fill="#4177AF" points="4619.375,145.8398,4614.375,153.3398,4624.375,153.3398" style="stroke:#1963A0;stroke-width:1.25;"/><text fill="#000000" font-family="sans-serif" font-size="13.75" lengthAdjust="spacing" textLength="227.5" x="4630.625" y="156.3635">MessageChannel bestellungChannel()</text><!--MD5=[73179ba6fabfb7f2af65bfad48842aad]
class at.itkollegimst.Hain.pos1makro.test2.buchhandlung.interfaces.events.BuchdruckAbgeschlossenEventHandler--><rect codeLine="57" fill="#FEFECE" filter="url(#f1h8s4jsqq8k55)" height="94.5898" id="at.itkollegimst.Hain.pos1makro.test2.buchhandlung.interfaces.events.BuchdruckAbgeschlossenEventHandler" style="stroke:#A80036;stroke-width:1.875;" width="565" x="5230" y="61.25"/><ellipse cx="5370.9375" cy="81.25" fill="#ADD1B2" rx="13.75" ry="13.75" style="stroke:#A80036;stroke-width:1.25;"/><path d="M5373.4375,76.875 Q5373.6914,76.25 5373.9844,75.9375 Q5374.2773,75.625 5374.6094,75.625 Q5375.1953,75.625 5375.5664,75.9766 Q5375.9375,76.3281 5375.9375,77.1484 L5375.9375,79.1016 Q5375.9375,79.9219 5375.5859,80.2734 Q5375.2344,80.625 5374.6875,80.625 Q5374.1992,80.625 5373.8867,80.4102 Q5373.5742,80.1953 5373.4375,79.6289 Q5373.3789,79.2383 5373.1641,79.0234 Q5372.7734,78.6133 5372.0703,78.3789 Q5371.3672,78.125 5370.6641,78.125 Q5369.7852,78.125 5369.043,78.4766 Q5368.3203,78.8281 5367.7539,79.6094 Q5367.1875,80.3906 5367.1875,81.4648 L5367.1875,82.6172 Q5367.1875,83.9063 5368.2422,84.7656 Q5369.2969,85.625 5371.1719,85.625 Q5372.2852,85.625 5373.0664,85.3711 Q5373.5156,85.2344 5374.0234,84.7852 Q5374.3555,84.5313 5374.5313,84.4531 Q5374.707,84.375 5374.9219,84.375 Q5375.332,84.375 5375.625,84.707 Q5375.9375,85.0195 5375.9375,85.4688 Q5375.9375,85.8984 5375.5078,86.4063 Q5374.8828,87.1484 5373.8867,87.5586 Q5372.5781,88.125 5370.9766,88.125 Q5369.1016,88.125 5367.5977,87.3828 Q5366.3867,86.7969 5365.5273,85.5273 Q5364.6875,84.2578 5364.6875,82.7539 L5364.6875,81.3867 Q5364.6875,79.8242 5365.4297,78.457 Q5366.1914,77.0898 5367.5,76.3672 Q5368.8281,75.625 5370.3125,75.625 Q5371.2109,75.625 5371.9922,75.9375 Q5372.7734,76.25 5373.4375,76.875 Z " fill="#000000"/><text fill="#000000" font-family="sans-serif" font-size="15" lengthAdjust="spacing" textLength="272.5" x="5396.5625" y="87.3877">BuchdruckAbgeschlossenEventHandler</text><line style="stroke:#A80036;stroke-width:1.875;" x1="5231.25" x2="5793.75" y1="101.25" y2="101.25"/><rect fill="none" height="7.5" style="stroke:#C82930;stroke-width:1.25;" width="7.5" x="5240" y="111.25"/><text fill="#000000" font-family="sans-serif" font-size="13.75" lengthAdjust="spacing" textLength="532.5" x="5255" y="120.5237">BuchdruckAbgeschlossenCommandService buchdruckAbgeschlossenCommandService</text><line style="stroke:#A80036;stroke-width:1.875;" x1="5231.25" x2="5793.75" y1="128.5449" y2="128.5449"/><ellipse cx="5243.75" cy="142.2949" fill="#84BE84" rx="3.75" ry="3.75" style="stroke:#038048;stroke-width:1.25;"/><text fill="#000000" font-family="sans-serif" font-size="13.75" lengthAdjust="spacing" textLength="311.25" x="5255" y="147.8186">void receiveEvent(BuchdruckAbgeschlossenEvent)</text><!--MD5=[57c71c80aed7f6bcf81e80a019eb4402]
class at.itkollegimst.Hain.pos1makro.test2.buchhandlung.interfaces.rest.BuchBestellungsController--><rect codeLine="61" fill="#FEFECE" filter="url(#f1h8s4jsqq8k55)" height="111.8848" id="at.itkollegimst.Hain.pos1makro.test2.buchhandlung.interfaces.rest.BuchBestellungsController" style="stroke:#A80036;stroke-width:1.875;" width="432.5" x="5940" y="52.5"/><ellipse cx="6058.4375" cy="72.5" fill="#ADD1B2" rx="13.75" ry="13.75" style="stroke:#A80036;stroke-width:1.25;"/><path d="M6060.9375,68.125 Q6061.1914,67.5 6061.4844,67.1875 Q6061.7773,66.875 6062.1094,66.875 Q6062.6953,66.875 6063.0664,67.2266 Q6063.4375,67.5781 6063.4375,68.3984 L6063.4375,70.3516 Q6063.4375,71.1719 6063.0859,71.5234 Q6062.7344,71.875 6062.1875,71.875 Q6061.6992,71.875 6061.3867,71.6602 Q6061.0742,71.4453 6060.9375,70.8789 Q6060.8789,70.4883 6060.6641,70.2734 Q6060.2734,69.8633 6059.5703,69.6289 Q6058.8672,69.375 6058.1641,69.375 Q6057.2852,69.375 6056.543,69.7266 Q6055.8203,70.0781 6055.2539,70.8594 Q6054.6875,71.6406 6054.6875,72.7148 L6054.6875,73.8672 Q6054.6875,75.1563 6055.7422,76.0156 Q6056.7969,76.875 6058.6719,76.875 Q6059.7852,76.875 6060.5664,76.6211 Q6061.0156,76.4844 6061.5234,76.0352 Q6061.8555,75.7813 6062.0313,75.7031 Q6062.207,75.625 6062.4219,75.625 Q6062.832,75.625 6063.125,75.957 Q6063.4375,76.2695 6063.4375,76.7188 Q6063.4375,77.1484 6063.0078,77.6563 Q6062.3828,78.3984 6061.3867,78.8086 Q6060.0781,79.375 6058.4766,79.375 Q6056.6016,79.375 6055.0977,78.6328 Q6053.8867,78.0469 6053.0273,76.7773 Q6052.1875,75.5078 6052.1875,74.0039 L6052.1875,72.6367 Q6052.1875,71.0742 6052.9297,69.707 Q6053.6914,68.3398 6055,67.6172 Q6056.3281,66.875 6057.8125,66.875 Q6058.7109,66.875 6059.4922,67.1875 Q6060.2734,67.5 6060.9375,68.125 Z " fill="#000000"/><text fill="#000000" font-family="sans-serif" font-size="15" lengthAdjust="spacing" textLength="185" x="6084.0625" y="78.6377">BuchBestellungsController</text><line style="stroke:#A80036;stroke-width:1.875;" x1="5941.25" x2="6371.25" y1="92.5" y2="92.5"/><rect fill="none" height="7.5" style="stroke:#C82930;stroke-width:1.25;" width="7.5" x="5950" y="102.5"/><text fill="#000000" font-family="sans-serif" font-size="13.75" lengthAdjust="spacing" textLength="400" x="5965" y="111.7737">BuchBestellungCommandService buchBestellungCommandService</text><line style="stroke:#A80036;stroke-width:1.875;" x1="5941.25" x2="6371.25" y1="119.7949" y2="119.7949"/><ellipse cx="5953.75" cy="133.5449" fill="#84BE84" rx="3.75" ry="3.75" style="stroke:#038048;stroke-width:1.25;"/><text fill="#000000" font-family="sans-serif" font-size="13.75" lengthAdjust="spacing" textLength="193.75" x="5965" y="139.0686">List&lt;Bestellung&gt; getBestellung()</text><ellipse cx="5953.75" cy="150.8398" fill="#84BE84" rx="3.75" ry="3.75" style="stroke:#038048;stroke-width:1.25;"/><text fill="#000000" font-family="sans-serif" font-size="13.75" lengthAdjust="spacing" textLength="102.5" x="5965" y="156.3635">String bestellen()</text><!--MD5=[0702bcce7991b6dff02b9781f9294d8e]
class org.springframework.data.domain.AbstractAggregateRoot--><rect fill="#FEFECE" filter="url(#f1h8s4jsqq8k55)" height="60" id="org.springframework.data.domain.AbstractAggregateRoot" style="stroke:#A80036;stroke-width:1.875;" width="197.5" x="108.75" y="78.75"/><ellipse cx="127.5" cy="98.75" fill="#ADD1B2" rx="13.75" ry="13.75" style="stroke:#A80036;stroke-width:1.25;"/><path d="M130,94.375 Q130.2539,93.75 130.5469,93.4375 Q130.8398,93.125 131.1719,93.125 Q131.7578,93.125 132.1289,93.4766 Q132.5,93.8281 132.5,94.6484 L132.5,96.6016 Q132.5,97.4219 132.1484,97.7734 Q131.7969,98.125 131.25,98.125 Q130.7617,98.125 130.4492,97.9102 Q130.1367,97.6953 130,97.1289 Q129.9414,96.7383 129.7266,96.5234 Q129.3359,96.1133 128.6328,95.8789 Q127.9297,95.625 127.2266,95.625 Q126.3477,95.625 125.6055,95.9766 Q124.8828,96.3281 124.3164,97.1094 Q123.75,97.8906 123.75,98.9648 L123.75,100.1172 Q123.75,101.4063 124.8047,102.2656 Q125.8594,103.125 127.7344,103.125 Q128.8477,103.125 129.6289,102.8711 Q130.0781,102.7344 130.5859,102.2852 Q130.918,102.0313 131.0938,101.9531 Q131.2695,101.875 131.4844,101.875 Q131.8945,101.875 132.1875,102.207 Q132.5,102.5195 132.5,102.9688 Q132.5,103.3984 132.0703,103.9063 Q131.4453,104.6484 130.4492,105.0586 Q129.1406,105.625 127.5391,105.625 Q125.6641,105.625 124.1602,104.8828 Q122.9492,104.2969 122.0898,103.0273 Q121.25,101.7578 121.25,100.2539 L121.25,98.8867 Q121.25,97.3242 121.9922,95.957 Q122.7539,94.5898 124.0625,93.8672 Q125.3906,93.125 126.875,93.125 Q127.7734,93.125 128.5547,93.4375 Q129.3359,93.75 130,94.375 Z " fill="#000000"/><text fill="#000000" font-family="sans-serif" font-size="15" lengthAdjust="spacing" textLength="157.5" x="145" y="104.8877">AbstractAggregateRoot</text><line style="stroke:#A80036;stroke-width:1.875;" x1="110" x2="305" y1="118.75" y2="118.75"/><line style="stroke:#A80036;stroke-width:1.875;" x1="110" x2="305" y1="128.75" y2="128.75"/><!--MD5=[9066e956ebe5b62a90d194ed6cf4a894]
class org.springframework.data.jpa.repository.JpaRepository--><rect fill="#FEFECE" filter="url(#f1h8s4jsqq8k55)" height="60" id="org.springframework.data.jpa.repository.JpaRepository" style="stroke:#A80036;stroke-width:1.875;" width="138.75" x="1243.125" y="78.75"/><ellipse cx="1261.875" cy="98.75" fill="#ADD1B2" rx="13.75" ry="13.75" style="stroke:#A80036;stroke-width:1.25;"/><path d="M1264.375,94.375 Q1264.6289,93.75 1264.9219,93.4375 Q1265.2148,93.125 1265.5469,93.125 Q1266.1328,93.125 1266.5039,93.4766 Q1266.875,93.8281 1266.875,94.6484 L1266.875,96.6016 Q1266.875,97.4219 1266.5234,97.7734 Q1266.1719,98.125 1265.625,98.125 Q1265.1367,98.125 1264.8242,97.9102 Q1264.5117,97.6953 1264.375,97.1289 Q1264.3164,96.7383 1264.1016,96.5234 Q1263.7109,96.1133 1263.0078,95.8789 Q1262.3047,95.625 1261.6016,95.625 Q1260.7227,95.625 1259.9805,95.9766 Q1259.2578,96.3281 1258.6914,97.1094 Q1258.125,97.8906 1258.125,98.9648 L1258.125,100.1172 Q1258.125,101.4063 1259.1797,102.2656 Q1260.2344,103.125 1262.1094,103.125 Q1263.2227,103.125 1264.0039,102.8711 Q1264.4531,102.7344 1264.9609,102.2852 Q1265.293,102.0313 1265.4688,101.9531 Q1265.6445,101.875 1265.8594,101.875 Q1266.2695,101.875 1266.5625,102.207 Q1266.875,102.5195 1266.875,102.9688 Q1266.875,103.3984 1266.4453,103.9063 Q1265.8203,104.6484 1264.8242,105.0586 Q1263.5156,105.625 1261.9141,105.625 Q1260.0391,105.625 1258.5352,104.8828 Q1257.3242,104.2969 1256.4648,103.0273 Q1255.625,101.7578 1255.625,100.2539 L1255.625,98.8867 Q1255.625,97.3242 1256.3672,95.957 Q1257.1289,94.5898 1258.4375,93.8672 Q1259.7656,93.125 1261.25,93.125 Q1262.1484,93.125 1262.9297,93.4375 Q1263.7109,93.75 1264.375,94.375 Z " fill="#000000"/><text fill="#000000" font-family="sans-serif" font-size="15" lengthAdjust="spacing" textLength="98.75" x="1279.375" y="104.8877">JpaRepository</text><line style="stroke:#A80036;stroke-width:1.875;" x1="1244.375" x2="1380.625" y1="118.75" y2="118.75"/><line style="stroke:#A80036;stroke-width:1.875;" x1="1244.375" x2="1380.625" y1="128.75" y2="128.75"/><!--MD5=[5a5af9b0547913863cbe0ddf55a9ab5e]
class java.io.Serializable--><rect fill="#FEFECE" filter="url(#f1h8s4jsqq8k55)" height="60" id="java.io.Serializable" style="stroke:#A80036;stroke-width:1.875;" width="120" x="393.75" y="78.75"/><ellipse cx="412.5" cy="98.75" fill="#ADD1B2" rx="13.75" ry="13.75" style="stroke:#A80036;stroke-width:1.25;"/><path d="M415,94.375 Q415.2539,93.75 415.5469,93.4375 Q415.8398,93.125 416.1719,93.125 Q416.7578,93.125 417.1289,93.4766 Q417.5,93.8281 417.5,94.6484 L417.5,96.6016 Q417.5,97.4219 417.1484,97.7734 Q416.7969,98.125 416.25,98.125 Q415.7617,98.125 415.4492,97.9102 Q415.1367,97.6953 415,97.1289 Q414.9414,96.7383 414.7266,96.5234 Q414.3359,96.1133 413.6328,95.8789 Q412.9297,95.625 412.2266,95.625 Q411.3477,95.625 410.6055,95.9766 Q409.8828,96.3281 409.3164,97.1094 Q408.75,97.8906 408.75,98.9648 L408.75,100.1172 Q408.75,101.4063 409.8047,102.2656 Q410.8594,103.125 412.7344,103.125 Q413.8477,103.125 414.6289,102.8711 Q415.0781,102.7344 415.5859,102.2852 Q415.918,102.0313 416.0938,101.9531 Q416.2695,101.875 416.4844,101.875 Q416.8945,101.875 417.1875,102.207 Q417.5,102.5195 417.5,102.9688 Q417.5,103.3984 417.0703,103.9063 Q416.4453,104.6484 415.4492,105.0586 Q414.1406,105.625 412.5391,105.625 Q410.6641,105.625 409.1602,104.8828 Q407.9492,104.2969 407.0898,103.0273 Q406.25,101.7578 406.25,100.2539 L406.25,98.8867 Q406.25,97.3242 406.9922,95.957 Q407.7539,94.5898 409.0625,93.8672 Q410.3906,93.125 411.875,93.125 Q412.7734,93.125 413.5547,93.4375 Q414.3359,93.75 415,94.375 Z " fill="#000000"/><text fill="#000000" font-family="sans-serif" font-size="15" lengthAdjust="spacing" textLength="80" x="430" y="104.8877">Serializable</text><line style="stroke:#A80036;stroke-width:1.875;" x1="395" x2="512.5" y1="118.75" y2="118.75"/><line style="stroke:#A80036;stroke-width:1.875;" x1="395" x2="512.5" y1="128.75" y2="128.75"/><!--MD5=[6716719789f6dfda705d6ee1d13b9625]
reverse link org.springframework.data.domain.AbstractAggregateRoot to at.itkollegimst.Hain.pos1makro.test2.buchhandlung.domain.model.aggregates.Bestellung--><path codeLine="68" d="M207.5,164.0375 C207.5,191.8 207.5,226.6375 207.5,259.5625 " fill="none" id="org.springframework.data.domain.AbstractAggregateRoot-backto-at.itkollegimst.Hain.pos1makro.test2.buchhandlung.domain.model.aggregates.Bestellung" style="stroke:#A80036;stroke-width:1.25;"/><polygon fill="none" points="198.75,163.9625,207.5,138.9625,216.25,163.9625,198.75,163.9625" style="stroke:#A80036;stroke-width:1.25;"/><!--MD5=[71ee210f750e3611924bc40b7bdcca7b]
reverse link org.springframework.data.jpa.repository.JpaRepository to at.itkollegimst.Hain.pos1makro.test2.buchhandlung.infrastructure.repository.jpa.BestellungRepository--><path codeLine="69" d="M1312.5,164.25 C1312.5,210.5125 1312.5,276.3 1312.5,320.225 " fill="none" id="org.springframework.data.jpa.repository.JpaRepository-backto-at.itkollegimst.Hain.pos1makro.test2.buchhandlung.infrastructure.repository.jpa.BestellungRepository" style="stroke:#A80036;stroke-width:1.25;"/><polygon fill="none" points="1303.75,163.9625,1312.5,138.9625,1321.25,163.9625,1303.75,163.9625" style="stroke:#A80036;stroke-width:1.25;"/><!--MD5=[bf484087037f98f00ead58615f88d107]
reverse link java.io.Serializable to at.itkollegimst.Hain.pos1makro.test2.buchhandlung.domain.model.aggregates.Bestellid--><path codeLine="70" d="M453.75,163.9875 C453.75,207.275 453.75,267.8125 453.75,311.475 " fill="none" id="java.io.Serializable-backto-at.itkollegimst.Hain.pos1makro.test2.buchhandlung.domain.model.aggregates.Bestellid" style="stroke:#A80036;stroke-width:1.25;stroke-dasharray:7.0,7.0;"/><polygon fill="none" points="445,163.9625,453.75,138.9625,462.5,163.9625,445,163.9625" style="stroke:#A80036;stroke-width:1.25;"/><!--MD5=[eb0922c0abd83de7bc657065238f5093]
@startuml
class at.itkollegimst.Hain.pos1makro.test2.buchhandlung.domain.model.aggregates.Bestellung {
- Long id
- BestellungStatus status
- Bestellid bestellid
+ String getBestellid()
+ void setBestellid(Bestellid)
+ void addDomainEvent(Object)
+ void setId(Long)
+ BestellungStatus getStatus()
+ void setStatus(BestellungStatus)
}
class at.itkollegimst.Hain.pos1makro.test2.shareddomain.events.BuchBestelltEvent {
- String bestellid
+ String getBestellid()
+ void setBestellid(String)
}
interface at.itkollegimst.Hain.pos1makro.test2.buchhandlung.infrastructure.repository.jpa.BestellungRepository {
~ void updateStatus(BestellungStatus,Bestellid)
~ List<Bestellung> findAll()
}
class at.itkollegimst.Hain.pos1makro.test2.buchhandlung.application.internal.outboundservices.BestellungEventPublisherService {
- BestellungEventSource bestellungEventSource
+ void handleBuchBestelltEvent(BuchBestelltEvent)
}
class at.itkollegimst.Hain.pos1makro.test2.buchhandlung.domain.model.commands.BuchBestellCommand {
- String bestellid
+ void setBestellid(String)
+ String getBestellid()
}
class at.itkollegimst.Hain.pos1makro.test2.shareddomain.events.BuchdruckAbgeschlossenEvent {
- String bestellid
+ String getBestellid()
+ void setBestellid(String)
}
class at.itkollegimst.Hain.pos1makro.test2.buchhandlung.domain.model.aggregates.Bestellid {
- String bestellid
+ void setBestellid(String)
+ String getBestellid()
}
class at.itkollegimst.Hain.pos1makro.test2.buchhandlung.BuchhandlungApplication {
+ {static} void main(String[])
}
class at.itkollegimst.Hain.pos1makro.test2.buchhandlung.application.internal.commandservices.BuchBestellungCommandService {
- BestellungRepository bestellungRepository
+ String bestellen(BuchBestellCommand)
+ List<Bestellung> listAll()
}
interface at.itkollegimst.Hain.pos1makro.test2.buchhandlung.infrastructure.brokers.rabittmq.BestellungEventSource {
~ String GEDRUCKT
~ SubscribableChannel buchdruckAbgeschlossenChannel()
~ MessageChannel bestellungChannel()
}
class at.itkollegimst.Hain.pos1makro.test2.buchhandlung.application.internal.commandservices.BuchdruckAbgeschlossenCommandService {
- BestellungRepository bestellungRepository
+ void buchWurdeGedruckt(String)
}
class at.itkollegimst.Hain.pos1makro.test2.buchhandlung.interfaces.events.BuchdruckAbgeschlossenEventHandler {
- BuchdruckAbgeschlossenCommandService buchdruckAbgeschlossenCommandService
+ void receiveEvent(BuchdruckAbgeschlossenEvent)
}
class at.itkollegimst.Hain.pos1makro.test2.buchhandlung.interfaces.rest.BuchBestellungsController {
- BuchBestellungCommandService buchBestellungCommandService
+ List<Bestellung> getBestellung()
+ String bestellen()
}


org.springframework.data.domain.AbstractAggregateRoot <|- - at.itkollegimst.Hain.pos1makro.test2.buchhandlung.domain.model.aggregates.Bestellung
org.springframework.data.jpa.repository.JpaRepository <|- - at.itkollegimst.Hain.pos1makro.test2.buchhandlung.infrastructure.repository.jpa.BestellungRepository
java.io.Serializable <|.. at.itkollegimst.Hain.pos1makro.test2.buchhandlung.domain.model.aggregates.Bestellid
@enduml

PlantUML version 1.2021.5(Sun Apr 25 13:20:28 CEST 2021)
(GPL source distribution)
Java Runtime: OpenJDK Runtime Environment
JVM: Dynamic Code Evolution 64-Bit Server VM
Default Encoding: Cp1252
Language: de
Country: AT
--></g></svg>