<?xml version="1.0" encoding="UTF-8" standalone="no"?><svg xmlns="http://www.w3.org/2000/svg" xmlns:xlink="http://www.w3.org/1999/xlink" contentScriptType="application/ecmascript" contentStyleType="text/css" height="401.25px" preserveAspectRatio="none" style="width:4718px;height:401px;" version="1.1" viewBox="0 0 4718 401" width="4718.75px" zoomAndPan="magnify"><defs><filter height="300%" id="f2crp952ql2ta" width="300%" x="-1" y="-1"><feGaussianBlur result="blurOut" stdDeviation="2.5"/><feColorMatrix in="blurOut" result="blurOut2" type="matrix" values="0 0 0 0 0 0 0 0 0 0 0 0 0 0 0 0 0 0 .4 0"/><feOffset dx="5.0" dy="5.0" in="blurOut2" result="blurOut3"/><feBlend in="SourceGraphic" in2="blurOut3" mode="normal"/></filter></defs><g><!--MD5=[5e8c04c64a0b4c374a19b6334bf1506c]
cluster at.itkollegimst.Hain.pos1makro.test2.druckerei--><polygon fill="#FFFFFF" filter="url(#f2crp952ql2ta)" points="20,25,433.75,25,442.5,54.5117,446.25,54.5117,446.25,167.5,20,167.5,20,25" style="stroke:#000000;stroke-width:1.875;"/><line style="stroke:#000000;stroke-width:1.875;" x1="20" x2="442.5" y1="54.5117" y2="54.5117"/><text fill="#000000" font-family="sans-serif" font-size="17.5" font-weight="bold" lengthAdjust="spacing" textLength="406.25" x="25" y="45.6665">at.itkollegimst.Hain.pos1makro.test2.druckerei</text><!--MD5=[669a1f8f1655c1663563346063b73aec]
cluster at.itkollegimst.Hain.pos1makro.test2.shareddomain.events--><polygon fill="#FFFFFF" filter="url(#f2crp952ql2ta)" points="476.25,7.5,996.25,7.5,1005,37.0117,1008.75,37.0117,1008.75,185,476.25,185,476.25,7.5" style="stroke:#000000;stroke-width:1.875;"/><line style="stroke:#000000;stroke-width:1.875;" x1="476.25" x2="1005" y1="37.0117" y2="37.0117"/><text fill="#000000" font-family="sans-serif" font-size="17.5" font-weight="bold" lengthAdjust="spacing" textLength="512.5" x="481.25" y="28.1665">at.itkollegimst.Hain.pos1makro.test2.shareddomain.events</text><!--MD5=[084bb8bbc32a1fd65cbcf579b30bf390]
cluster at.itkollegimst.Hain.pos1makro.test2.druckerei.domain.model.aggregates--><polygon fill="#FFFFFF" filter="url(#f2crp952ql2ta)" points="867.5,215,1513.75,215,1522.5,244.5117,1526.25,244.5117,1526.25,392.5,867.5,392.5,867.5,215" style="stroke:#000000;stroke-width:1.875;"/><line style="stroke:#000000;stroke-width:1.875;" x1="867.5" x2="1522.5" y1="244.5117" y2="244.5117"/><text fill="#000000" font-family="sans-serif" font-size="17.5" font-weight="bold" lengthAdjust="spacing" textLength="638.75" x="872.5" y="235.6665">at.itkollegimst.Hain.pos1makro.test2.druckerei.domain.model.aggregates</text><!--MD5=[c4967349b25a97beee6e5d9094573c07]
cluster at.itkollegimst.Hain.pos1makro.test2.druckerei.infrastructure.brokers.rabittmq--><polygon fill="#FFFFFF" filter="url(#f2crp952ql2ta)" points="1383.75,7.5,2075,7.5,2083.75,37.0117,2087.5,37.0117,2087.5,185,1383.75,185,1383.75,7.5" style="stroke:#000000;stroke-width:1.875;"/><line style="stroke:#000000;stroke-width:1.875;" x1="1383.75" x2="2083.75" y1="37.0117" y2="37.0117"/><text fill="#000000" font-family="sans-serif" font-size="17.5" font-weight="bold" lengthAdjust="spacing" textLength="683.75" x="1388.75" y="28.1665">at.itkollegimst.Hain.pos1makro.test2.druckerei.infrastructure.brokers.rabittmq</text><!--MD5=[8093677a3a9f520ebcc9d12a77d1d224]
cluster at.itkollegimst.Hain.pos1makro.test2.druckerei.infrastructure.repository.jpa--><polygon fill="#FFFFFF" filter="url(#f2crp952ql2ta)" points="1972.5,241.25,2638.75,241.25,2647.5,270.7617,2651.25,270.7617,2651.25,366.25,1972.5,366.25,1972.5,241.25" style="stroke:#000000;stroke-width:1.875;"/><line style="stroke:#000000;stroke-width:1.875;" x1="1972.5" x2="2647.5" y1="270.7617" y2="270.7617"/><text fill="#000000" font-family="sans-serif" font-size="17.5" font-weight="bold" lengthAdjust="spacing" textLength="658.75" x="1977.5" y="261.9165">at.itkollegimst.Hain.pos1makro.test2.druckerei.infrastructure.repository.jpa</text><!--MD5=[71e02a49e60f68b29c5beca9a6aa9ef9]
cluster at.itkollegimst.Hain.pos1makro.test2.druckerei.application.internal.commandservices--><polygon fill="#FFFFFF" filter="url(#f2crp952ql2ta)" points="2520,16.25,3272.5,16.25,3281.25,45.7617,3285,45.7617,3285,176.25,2520,176.25,2520,16.25" style="stroke:#000000;stroke-width:1.875;"/><line style="stroke:#000000;stroke-width:1.875;" x1="2520" x2="3281.25" y1="45.7617" y2="45.7617"/><text fill="#000000" font-family="sans-serif" font-size="17.5" font-weight="bold" lengthAdjust="spacing" textLength="745" x="2525" y="36.9165">at.itkollegimst.Hain.pos1makro.test2.druckerei.application.internal.commandservices</text><!--MD5=[cd9a08326e71a09623330373466e6dec]
cluster at.itkollegimst.Hain.pos1makro.test2.druckerei.application.internal.outboundservices--><polygon fill="#FFFFFF" filter="url(#f2crp952ql2ta)" points="3315,16.25,4068.75,16.25,4077.5,45.7617,4081.25,45.7617,4081.25,176.25,3315,176.25,3315,16.25" style="stroke:#000000;stroke-width:1.875;"/><line style="stroke:#000000;stroke-width:1.875;" x1="3315" x2="4077.5" y1="45.7617" y2="45.7617"/><text fill="#000000" font-family="sans-serif" font-size="17.5" font-weight="bold" lengthAdjust="spacing" textLength="746.25" x="3320" y="36.9165">at.itkollegimst.Hain.pos1makro.test2.druckerei.application.internal.outboundservices</text><!--MD5=[7cacdbe9c8f2401069eb79b9ea4d86b1]
cluster at.itkollegimst.Hain.pos1makro.test2.druckerei.interfaces.events--><polygon fill="#FFFFFF" filter="url(#f2crp952ql2ta)" points="4111.25,16.25,4685,16.25,4693.75,45.7617,4697.5,45.7617,4697.5,176.25,4111.25,176.25,4111.25,16.25" style="stroke:#000000;stroke-width:1.875;"/><line style="stroke:#000000;stroke-width:1.875;" x1="4111.25" x2="4693.75" y1="45.7617" y2="45.7617"/><text fill="#000000" font-family="sans-serif" font-size="17.5" font-weight="bold" lengthAdjust="spacing" textLength="566.25" x="4116.25" y="36.9165">at.itkollegimst.Hain.pos1makro.test2.druckerei.interfaces.events</text><!--MD5=[399b68e8a9a77cf1bf61376e5f460ed4]
cluster org.springframework.data.domain--><polygon fill="#FFFFFF" filter="url(#f2crp952ql2ta)" points="1038.75,33.75,1341.25,33.75,1350,63.2617,1353.75,63.2617,1353.75,158.75,1038.75,158.75,1038.75,33.75" style="stroke:#000000;stroke-width:1.875;"/><line style="stroke:#000000;stroke-width:1.875;" x1="1038.75" x2="1350" y1="63.2617" y2="63.2617"/><text fill="#000000" font-family="sans-serif" font-size="17.5" font-weight="bold" lengthAdjust="spacing" textLength="295" x="1043.75" y="54.4165">org.springframework.data.domain</text><!--MD5=[cd09a31e374d3ba35fd45e1567298dba]
cluster org.springframework.data.jpa.repository--><polygon fill="#FFFFFF" filter="url(#f2crp952ql2ta)" points="2117.5,33.75,2477.5,33.75,2486.25,63.2617,2490,63.2617,2490,158.75,2117.5,158.75,2117.5,33.75" style="stroke:#000000;stroke-width:1.875;"/><line style="stroke:#000000;stroke-width:1.875;" x1="2117.5" x2="2486.25" y1="63.2617" y2="63.2617"/><text fill="#000000" font-family="sans-serif" font-size="17.5" font-weight="bold" lengthAdjust="spacing" textLength="352.5" x="2122.5" y="54.4165">org.springframework.data.jpa.repository</text><!--MD5=[ee27d35d5cb6180926bf9ce83dafcb48]
class at.itkollegimst.Hain.pos1makro.test2.druckerei.DruckereiApplication--><rect codeLine="1" fill="#FEFECE" filter="url(#f2crp952ql2ta)" height="77.2949" id="at.itkollegimst.Hain.pos1makro.test2.druckerei.DruckereiApplication" style="stroke:#A80036;stroke-width:1.875;" width="181.25" x="141.875" y="70"/><ellipse cx="160.625" cy="90" fill="#ADD1B2" rx="13.75" ry="13.75" style="stroke:#A80036;stroke-width:1.25;"/><path d="M163.125,85.625 Q163.3789,85 163.6719,84.6875 Q163.9648,84.375 164.2969,84.375 Q164.8828,84.375 165.2539,84.7266 Q165.625,85.0781 165.625,85.8984 L165.625,87.8516 Q165.625,88.6719 165.2734,89.0234 Q164.9219,89.375 164.375,89.375 Q163.8867,89.375 163.5742,89.1602 Q163.2617,88.9453 163.125,88.3789 Q163.0664,87.9883 162.8516,87.7734 Q162.4609,87.3633 161.7578,87.1289 Q161.0547,86.875 160.3516,86.875 Q159.4727,86.875 158.7305,87.2266 Q158.0078,87.5781 157.4414,88.3594 Q156.875,89.1406 156.875,90.2148 L156.875,91.3672 Q156.875,92.6563 157.9297,93.5156 Q158.9844,94.375 160.8594,94.375 Q161.9727,94.375 162.7539,94.1211 Q163.2031,93.9844 163.7109,93.5352 Q164.043,93.2813 164.2188,93.2031 Q164.3945,93.125 164.6094,93.125 Q165.0195,93.125 165.3125,93.457 Q165.625,93.7695 165.625,94.2188 Q165.625,94.6484 165.1953,95.1563 Q164.5703,95.8984 163.5742,96.3086 Q162.2656,96.875 160.6641,96.875 Q158.7891,96.875 157.2852,96.1328 Q156.0742,95.5469 155.2148,94.2773 Q154.375,93.0078 154.375,91.5039 L154.375,90.1367 Q154.375,88.5742 155.1172,87.207 Q155.8789,85.8398 157.1875,85.1172 Q158.5156,84.375 160,84.375 Q160.8984,84.375 161.6797,84.6875 Q162.4609,85 163.125,85.625 Z " fill="#000000"/><text fill="#000000" font-family="sans-serif" font-size="15" lengthAdjust="spacing" textLength="141.25" x="178.125" y="96.1377">DruckereiApplication</text><line style="stroke:#A80036;stroke-width:1.875;" x1="143.125" x2="321.875" y1="110" y2="110"/><line style="stroke:#A80036;stroke-width:1.875;" x1="143.125" x2="321.875" y1="120" y2="120"/><ellipse cx="155.625" cy="133.75" fill="#84BE84" rx="3.75" ry="3.75" style="stroke:#038048;stroke-width:1.25;"/><text fill="#000000" font-family="sans-serif" font-size="13.75" lengthAdjust="spacing" text-decoration="underline" textLength="108.75" x="166.875" y="139.2737">void main(String[])</text><!--MD5=[6f9140c69cf68e85a2e623d27c0b1802]
class at.itkollegimst.Hain.pos1makro.test2.shareddomain.events.BuchBestelltEvent--><rect codeLine="4" fill="#FEFECE" filter="url(#f2crp952ql2ta)" height="111.8848" id="at.itkollegimst.Hain.pos1makro.test2.shareddomain.events.BuchBestelltEvent" style="stroke:#A80036;stroke-width:1.875;" width="175" x="805" y="52.5"/><ellipse cx="828.8125" cy="72.5" fill="#ADD1B2" rx="13.75" ry="13.75" style="stroke:#A80036;stroke-width:1.25;"/><path d="M831.3125,68.125 Q831.5664,67.5 831.8594,67.1875 Q832.1523,66.875 832.4844,66.875 Q833.0703,66.875 833.4414,67.2266 Q833.8125,67.5781 833.8125,68.3984 L833.8125,70.3516 Q833.8125,71.1719 833.4609,71.5234 Q833.1094,71.875 832.5625,71.875 Q832.0742,71.875 831.7617,71.6602 Q831.4492,71.4453 831.3125,70.8789 Q831.2539,70.4883 831.0391,70.2734 Q830.6484,69.8633 829.9453,69.6289 Q829.2422,69.375 828.5391,69.375 Q827.6602,69.375 826.918,69.7266 Q826.1953,70.0781 825.6289,70.8594 Q825.0625,71.6406 825.0625,72.7148 L825.0625,73.8672 Q825.0625,75.1563 826.1172,76.0156 Q827.1719,76.875 829.0469,76.875 Q830.1602,76.875 830.9414,76.6211 Q831.3906,76.4844 831.8984,76.0352 Q832.2305,75.7813 832.4063,75.7031 Q832.582,75.625 832.7969,75.625 Q833.207,75.625 833.5,75.957 Q833.8125,76.2695 833.8125,76.7188 Q833.8125,77.1484 833.3828,77.6563 Q832.7578,78.3984 831.7617,78.8086 Q830.4531,79.375 828.8516,79.375 Q826.9766,79.375 825.4727,78.6328 Q824.2617,78.0469 823.4023,76.7773 Q822.5625,75.5078 822.5625,74.0039 L822.5625,72.6367 Q822.5625,71.0742 823.3047,69.707 Q824.0664,68.3398 825.375,67.6172 Q826.7031,66.875 828.1875,66.875 Q829.0859,66.875 829.8672,67.1875 Q830.6484,67.5 831.3125,68.125 Z " fill="#000000"/><text fill="#000000" font-family="sans-serif" font-size="15" lengthAdjust="spacing" textLength="123.75" x="847.4375" y="78.6377">BuchBestelltEvent</text><line style="stroke:#A80036;stroke-width:1.875;" x1="806.25" x2="978.75" y1="92.5" y2="92.5"/><rect fill="none" height="7.5" style="stroke:#C82930;stroke-width:1.25;" width="7.5" x="815" y="102.5"/><text fill="#000000" font-family="sans-serif" font-size="13.75" lengthAdjust="spacing" textLength="87.5" x="830" y="111.7737">String bestellid</text><line style="stroke:#A80036;stroke-width:1.875;" x1="806.25" x2="978.75" y1="119.7949" y2="119.7949"/><ellipse cx="818.75" cy="133.5449" fill="#84BE84" rx="3.75" ry="3.75" style="stroke:#038048;stroke-width:1.25;"/><text fill="#000000" font-family="sans-serif" font-size="13.75" lengthAdjust="spacing" textLength="117.5" x="830" y="139.0686">String getBestellid()</text><ellipse cx="818.75" cy="150.8398" fill="#84BE84" rx="3.75" ry="3.75" style="stroke:#038048;stroke-width:1.25;"/><text fill="#000000" font-family="sans-serif" font-size="13.75" lengthAdjust="spacing" textLength="142.5" x="830" y="156.3635">void setBestellid(String)</text><!--MD5=[8904682c7b2a76f9221699df56bb9635]
class at.itkollegimst.Hain.pos1makro.test2.shareddomain.events.BuchdruckAbgeschlossenEvent--><rect codeLine="9" fill="#FEFECE" filter="url(#f2crp952ql2ta)" height="111.8848" id="at.itkollegimst.Hain.pos1makro.test2.shareddomain.events.BuchdruckAbgeschlossenEvent" style="stroke:#A80036;stroke-width:1.875;" width="257.5" x="503.75" y="52.5"/><ellipse cx="522.5" cy="72.5" fill="#ADD1B2" rx="13.75" ry="13.75" style="stroke:#A80036;stroke-width:1.25;"/><path d="M525,68.125 Q525.2539,67.5 525.5469,67.1875 Q525.8398,66.875 526.1719,66.875 Q526.7578,66.875 527.1289,67.2266 Q527.5,67.5781 527.5,68.3984 L527.5,70.3516 Q527.5,71.1719 527.1484,71.5234 Q526.7969,71.875 526.25,71.875 Q525.7617,71.875 525.4492,71.6602 Q525.1367,71.4453 525,70.8789 Q524.9414,70.4883 524.7266,70.2734 Q524.3359,69.8633 523.6328,69.6289 Q522.9297,69.375 522.2266,69.375 Q521.3477,69.375 520.6055,69.7266 Q519.8828,70.0781 519.3164,70.8594 Q518.75,71.6406 518.75,72.7148 L518.75,73.8672 Q518.75,75.1563 519.8047,76.0156 Q520.8594,76.875 522.7344,76.875 Q523.8477,76.875 524.6289,76.6211 Q525.0781,76.4844 525.5859,76.0352 Q525.918,75.7813 526.0938,75.7031 Q526.2695,75.625 526.4844,75.625 Q526.8945,75.625 527.1875,75.957 Q527.5,76.2695 527.5,76.7188 Q527.5,77.1484 527.0703,77.6563 Q526.4453,78.3984 525.4492,78.8086 Q524.1406,79.375 522.5391,79.375 Q520.6641,79.375 519.1602,78.6328 Q517.9492,78.0469 517.0898,76.7773 Q516.25,75.5078 516.25,74.0039 L516.25,72.6367 Q516.25,71.0742 516.9922,69.707 Q517.7539,68.3398 519.0625,67.6172 Q520.3906,66.875 521.875,66.875 Q522.7734,66.875 523.5547,67.1875 Q524.3359,67.5 525,68.125 Z " fill="#000000"/><text fill="#000000" font-family="sans-serif" font-size="15" lengthAdjust="spacing" textLength="217.5" x="540" y="78.6377">BuchdruckAbgeschlossenEvent</text><line style="stroke:#A80036;stroke-width:1.875;" x1="505" x2="760" y1="92.5" y2="92.5"/><rect fill="none" height="7.5" style="stroke:#C82930;stroke-width:1.25;" width="7.5" x="513.75" y="102.5"/><text fill="#000000" font-family="sans-serif" font-size="13.75" lengthAdjust="spacing" textLength="87.5" x="528.75" y="111.7737">String bestellid</text><line style="stroke:#A80036;stroke-width:1.875;" x1="505" x2="760" y1="119.7949" y2="119.7949"/><ellipse cx="517.5" cy="133.5449" fill="#84BE84" rx="3.75" ry="3.75" style="stroke:#038048;stroke-width:1.25;"/><text fill="#000000" font-family="sans-serif" font-size="13.75" lengthAdjust="spacing" textLength="117.5" x="528.75" y="139.0686">String getBestellid()</text><ellipse cx="517.5" cy="150.8398" fill="#84BE84" rx="3.75" ry="3.75" style="stroke:#038048;stroke-width:1.25;"/><text fill="#000000" font-family="sans-serif" font-size="13.75" lengthAdjust="spacing" textLength="142.5" x="528.75" y="156.3635">void setBestellid(String)</text><!--MD5=[8601467bd40150817e15adb0b8ff18c0]
class at.itkollegimst.Hain.pos1makro.test2.druckerei.domain.model.aggregates.Bestellid--><rect codeLine="14" fill="#FEFECE" filter="url(#f2crp952ql2ta)" height="111.8848" id="at.itkollegimst.Hain.pos1makro.test2.druckerei.domain.model.aggregates.Bestellid" style="stroke:#A80036;stroke-width:1.875;" width="365" x="1013.75" y="260"/><ellipse cx="1160.9375" cy="280" fill="#ADD1B2" rx="13.75" ry="13.75" style="stroke:#A80036;stroke-width:1.25;"/><path d="M1163.4375,275.625 Q1163.6914,275 1163.9844,274.6875 Q1164.2773,274.375 1164.6094,274.375 Q1165.1953,274.375 1165.5664,274.7266 Q1165.9375,275.0781 1165.9375,275.8984 L1165.9375,277.8516 Q1165.9375,278.6719 1165.5859,279.0234 Q1165.2344,279.375 1164.6875,279.375 Q1164.1992,279.375 1163.8867,279.1602 Q1163.5742,278.9453 1163.4375,278.3789 Q1163.3789,277.9883 1163.1641,277.7734 Q1162.7734,277.3633 1162.0703,277.1289 Q1161.3672,276.875 1160.6641,276.875 Q1159.7852,276.875 1159.043,277.2266 Q1158.3203,277.5781 1157.7539,278.3594 Q1157.1875,279.1406 1157.1875,280.2148 L1157.1875,281.3672 Q1157.1875,282.6563 1158.2422,283.5156 Q1159.2969,284.375 1161.1719,284.375 Q1162.2852,284.375 1163.0664,284.1211 Q1163.5156,283.9844 1164.0234,283.5352 Q1164.3555,283.2813 1164.5313,283.2031 Q1164.707,283.125 1164.9219,283.125 Q1165.332,283.125 1165.625,283.457 Q1165.9375,283.7695 1165.9375,284.2188 Q1165.9375,284.6484 1165.5078,285.1563 Q1164.8828,285.8984 1163.8867,286.3086 Q1162.5781,286.875 1160.9766,286.875 Q1159.1016,286.875 1157.5977,286.1328 Q1156.3867,285.5469 1155.5273,284.2773 Q1154.6875,283.0078 1154.6875,281.5039 L1154.6875,280.1367 Q1154.6875,278.5742 1155.4297,277.207 Q1156.1914,275.8398 1157.5,275.1172 Q1158.8281,274.375 1160.3125,274.375 Q1161.2109,274.375 1161.9922,274.6875 Q1162.7734,275 1163.4375,275.625 Z " fill="#000000"/><text fill="#000000" font-family="sans-serif" font-size="15" lengthAdjust="spacing" textLength="60" x="1186.5625" y="286.1377">Bestellid</text><line style="stroke:#A80036;stroke-width:1.875;" x1="1015" x2="1377.5" y1="300" y2="300"/><rect fill="none" height="7.5" style="stroke:#C82930;stroke-width:1.25;" width="7.5" x="1023.75" y="310"/><text fill="#000000" font-family="sans-serif" font-size="13.75" lengthAdjust="spacing" textLength="43.75" x="1038.75" y="319.2737">Long id</text><rect fill="none" height="7.5" style="stroke:#C82930;stroke-width:1.25;" width="7.5" x="1023.75" y="327.2949"/><text fill="#000000" font-family="sans-serif" font-size="13.75" lengthAdjust="spacing" textLength="87.5" x="1038.75" y="336.5686">String bestellid</text><line style="stroke:#A80036;stroke-width:1.875;" x1="1015" x2="1377.5" y1="344.5898" y2="344.5898"/><ellipse cx="1027.5" cy="358.3398" fill="#84BE84" rx="3.75" ry="3.75" style="stroke:#038048;stroke-width:1.25;"/><text fill="#000000" font-family="sans-serif" font-size="13.75" lengthAdjust="spacing" textLength="332.5" x="1038.75" y="363.8635">void addDomainEvent(BuchdruckAbgeschlossenEvent)</text><!--MD5=[4e5c13b46c6dcd3790ab42e405ab1b80]
class at.itkollegimst.Hain.pos1makro.test2.druckerei.infrastructure.brokers.rabittmq.BestellungEventBinding--><rect codeLine="19" fill="#FEFECE" filter="url(#f2crp952ql2ta)" height="111.8848" id="at.itkollegimst.Hain.pos1makro.test2.druckerei.infrastructure.brokers.rabittmq.BestellungEventBinding" style="stroke:#A80036;stroke-width:1.875;" width="357.5" x="1556.25" y="52.5"/><ellipse cx="1647.8125" cy="72.5" fill="#B4A7E5" rx="13.75" ry="13.75" style="stroke:#A80036;stroke-width:1.25;"/><path d="M1649.0625,68.75 L1649.0625,76.25 L1651.5625,76.25 L1652.168,76.25 L1652.8125,77.0313 L1652.8125,77.5 L1652.8125,77.9688 L1652.168,78.75 L1651.5625,78.75 L1644.0625,78.75 L1643.457,78.75 L1642.8125,77.9688 L1642.8125,77.5 L1642.8125,77.0313 L1643.457,76.25 L1644.0625,76.25 L1646.5625,76.25 L1646.5625,68.75 L1644.0625,68.75 L1643.457,68.75 L1642.8125,67.9688 L1642.8125,67.5 L1642.8125,67.0313 L1643.457,66.25 L1644.0625,66.25 L1651.5625,66.25 L1652.168,66.25 L1652.8125,67.0313 L1652.8125,67.5 L1652.8125,67.9688 L1652.168,68.75 L1651.5625,68.75 L1649.0625,68.75 Z " fill="#000000"/><text fill="#000000" font-family="sans-serif" font-size="15" font-style="italic" lengthAdjust="spacing" textLength="163.75" x="1673.4375" y="78.6377">BestellungEventBinding</text><line style="stroke:#A80036;stroke-width:1.875;" x1="1557.5" x2="1912.5" y1="92.5" y2="92.5"/><polygon fill="none" points="1570,101.25,1565,108.75,1575,108.75" style="stroke:#1963A0;stroke-width:1.25;"/><text fill="#000000" font-family="sans-serif" font-size="13.75" lengthAdjust="spacing" textLength="121.25" x="1581.25" y="111.7737">String BESTELLUNG</text><line style="stroke:#A80036;stroke-width:1.875;" x1="1557.5" x2="1912.5" y1="119.7949" y2="119.7949"/><polygon fill="#4177AF" points="1570,128.5449,1565,136.0449,1575,136.0449" style="stroke:#1963A0;stroke-width:1.25;"/><text fill="#000000" font-family="sans-serif" font-size="13.75" lengthAdjust="spacing" textLength="251.25" x="1581.25" y="139.0686">SubscribableChannel bestellungChannel()</text><polygon fill="#4177AF" points="1570,145.8398,1565,153.3398,1575,153.3398" style="stroke:#1963A0;stroke-width:1.25;"/><text fill="#000000" font-family="sans-serif" font-size="13.75" lengthAdjust="spacing" textLength="325" x="1581.25" y="156.3635">MessageChannel buchdruckAbgeschlossenChannel()</text><!--MD5=[f49920a646677ec56f98fd0355e9a41c]
class at.itkollegimst.Hain.pos1makro.test2.druckerei.infrastructure.repository.jpa.BestellRepository--><rect codeLine="24" fill="#FEFECE" filter="url(#f2crp952ql2ta)" height="60" id="at.itkollegimst.Hain.pos1makro.test2.druckerei.infrastructure.repository.jpa.BestellRepository" style="stroke:#A80036;stroke-width:1.875;" width="160" x="2223.75" y="286.25"/><ellipse cx="2242.5" cy="306.25" fill="#B4A7E5" rx="13.75" ry="13.75" style="stroke:#A80036;stroke-width:1.25;"/><path d="M2243.75,302.5 L2243.75,310 L2246.25,310 L2246.8555,310 L2247.5,310.7813 L2247.5,311.25 L2247.5,311.7188 L2246.8555,312.5 L2246.25,312.5 L2238.75,312.5 L2238.1445,312.5 L2237.5,311.7188 L2237.5,311.25 L2237.5,310.7813 L2238.1445,310 L2238.75,310 L2241.25,310 L2241.25,302.5 L2238.75,302.5 L2238.1445,302.5 L2237.5,301.7188 L2237.5,301.25 L2237.5,300.7813 L2238.1445,300 L2238.75,300 L2246.25,300 L2246.8555,300 L2247.5,300.7813 L2247.5,301.25 L2247.5,301.7188 L2246.8555,302.5 L2246.25,302.5 L2243.75,302.5 Z " fill="#000000"/><text fill="#000000" font-family="sans-serif" font-size="15" font-style="italic" lengthAdjust="spacing" textLength="120" x="2260" y="312.3877">BestellRepository</text><line style="stroke:#A80036;stroke-width:1.875;" x1="2225" x2="2382.5" y1="326.25" y2="326.25"/><line style="stroke:#A80036;stroke-width:1.875;" x1="2225" x2="2382.5" y1="336.25" y2="336.25"/><!--MD5=[91539df3b30ed3217a2d728db41994e5]
class at.itkollegimst.Hain.pos1makro.test2.druckerei.application.internal.commandservices.BuchdruckCommandService--><rect codeLine="26" fill="#FEFECE" filter="url(#f2crp952ql2ta)" height="94.5898" id="at.itkollegimst.Hain.pos1makro.test2.druckerei.application.internal.commandservices.BuchdruckCommandService" style="stroke:#A80036;stroke-width:1.875;" width="245" x="2780" y="61.25"/><ellipse cx="2802.6875" cy="81.25" fill="#ADD1B2" rx="13.75" ry="13.75" style="stroke:#A80036;stroke-width:1.25;"/><path d="M2805.1875,76.875 Q2805.4414,76.25 2805.7344,75.9375 Q2806.0273,75.625 2806.3594,75.625 Q2806.9453,75.625 2807.3164,75.9766 Q2807.6875,76.3281 2807.6875,77.1484 L2807.6875,79.1016 Q2807.6875,79.9219 2807.3359,80.2734 Q2806.9844,80.625 2806.4375,80.625 Q2805.9492,80.625 2805.6367,80.4102 Q2805.3242,80.1953 2805.1875,79.6289 Q2805.1289,79.2383 2804.9141,79.0234 Q2804.5234,78.6133 2803.8203,78.3789 Q2803.1172,78.125 2802.4141,78.125 Q2801.5352,78.125 2800.793,78.4766 Q2800.0703,78.8281 2799.5039,79.6094 Q2798.9375,80.3906 2798.9375,81.4648 L2798.9375,82.6172 Q2798.9375,83.9063 2799.9922,84.7656 Q2801.0469,85.625 2802.9219,85.625 Q2804.0352,85.625 2804.8164,85.3711 Q2805.2656,85.2344 2805.7734,84.7852 Q2806.1055,84.5313 2806.2813,84.4531 Q2806.457,84.375 2806.6719,84.375 Q2807.082,84.375 2807.375,84.707 Q2807.6875,85.0195 2807.6875,85.4688 Q2807.6875,85.8984 2807.2578,86.4063 Q2806.6328,87.1484 2805.6367,87.5586 Q2804.3281,88.125 2802.7266,88.125 Q2800.8516,88.125 2799.3477,87.3828 Q2798.1367,86.7969 2797.2773,85.5273 Q2796.4375,84.2578 2796.4375,82.7539 L2796.4375,81.3867 Q2796.4375,79.8242 2797.1797,78.457 Q2797.9414,77.0898 2799.25,76.3672 Q2800.5781,75.625 2802.0625,75.625 Q2802.9609,75.625 2803.7422,75.9375 Q2804.5234,76.25 2805.1875,76.875 Z " fill="#000000"/><text fill="#000000" font-family="sans-serif" font-size="15" lengthAdjust="spacing" textLength="196.25" x="2821.0625" y="87.3877">BuchdruckCommandService</text><line style="stroke:#A80036;stroke-width:1.875;" x1="2781.25" x2="3023.75" y1="101.25" y2="101.25"/><rect fill="none" height="7.5" style="stroke:#C82930;stroke-width:1.25;" width="7.5" x="2790" y="111.25"/><text fill="#000000" font-family="sans-serif" font-size="13.75" lengthAdjust="spacing" textLength="212.5" x="2805" y="120.5237">BestellRepository bestellRepository</text><line style="stroke:#A80036;stroke-width:1.875;" x1="2781.25" x2="3023.75" y1="128.5449" y2="128.5449"/><ellipse cx="2793.75" cy="142.2949" fill="#84BE84" rx="3.75" ry="3.75" style="stroke:#038048;stroke-width:1.25;"/><text fill="#000000" font-family="sans-serif" font-size="13.75" lengthAdjust="spacing" textLength="166.25" x="2805" y="147.8186">void startBuchdruck(String)</text><!--MD5=[ebe04d6c74dab77f3dc9d02db8be0512]
class at.itkollegimst.Hain.pos1makro.test2.druckerei.application.internal.outboundservices.BuchdruckAbgeschlossenPublisherService--><rect codeLine="30" fill="#FEFECE" filter="url(#f2crp952ql2ta)" height="94.5898" id="at.itkollegimst.Hain.pos1makro.test2.druckerei.application.internal.outboundservices.BuchdruckAbgeschlossenPublisherService" style="stroke:#A80036;stroke-width:1.875;" width="336.25" x="3529.375" y="61.25"/><ellipse cx="3548.125" cy="81.25" fill="#ADD1B2" rx="13.75" ry="13.75" style="stroke:#A80036;stroke-width:1.25;"/><path d="M3550.625,76.875 Q3550.8789,76.25 3551.1719,75.9375 Q3551.4648,75.625 3551.7969,75.625 Q3552.3828,75.625 3552.7539,75.9766 Q3553.125,76.3281 3553.125,77.1484 L3553.125,79.1016 Q3553.125,79.9219 3552.7734,80.2734 Q3552.4219,80.625 3551.875,80.625 Q3551.3867,80.625 3551.0742,80.4102 Q3550.7617,80.1953 3550.625,79.6289 Q3550.5664,79.2383 3550.3516,79.0234 Q3549.9609,78.6133 3549.2578,78.3789 Q3548.5547,78.125 3547.8516,78.125 Q3546.9727,78.125 3546.2305,78.4766 Q3545.5078,78.8281 3544.9414,79.6094 Q3544.375,80.3906 3544.375,81.4648 L3544.375,82.6172 Q3544.375,83.9063 3545.4297,84.7656 Q3546.4844,85.625 3548.3594,85.625 Q3549.4727,85.625 3550.2539,85.3711 Q3550.7031,85.2344 3551.2109,84.7852 Q3551.543,84.5313 3551.7188,84.4531 Q3551.8945,84.375 3552.1094,84.375 Q3552.5195,84.375 3552.8125,84.707 Q3553.125,85.0195 3553.125,85.4688 Q3553.125,85.8984 3552.6953,86.4063 Q3552.0703,87.1484 3551.0742,87.5586 Q3549.7656,88.125 3548.1641,88.125 Q3546.2891,88.125 3544.7852,87.3828 Q3543.5742,86.7969 3542.7148,85.5273 Q3541.875,84.2578 3541.875,82.7539 L3541.875,81.3867 Q3541.875,79.8242 3542.6172,78.457 Q3543.3789,77.0898 3544.6875,76.3672 Q3546.0156,75.625 3547.5,75.625 Q3548.3984,75.625 3549.1797,75.9375 Q3549.9609,76.25 3550.625,76.875 Z " fill="#000000"/><text fill="#000000" font-family="sans-serif" font-size="15" lengthAdjust="spacing" textLength="296.25" x="3565.625" y="87.3877">BuchdruckAbgeschlossenPublisherService</text><line style="stroke:#A80036;stroke-width:1.875;" x1="3530.625" x2="3864.375" y1="101.25" y2="101.25"/><rect fill="none" height="7.5" style="stroke:#C82930;stroke-width:1.25;" width="7.5" x="3539.375" y="111.25"/><text fill="#000000" font-family="sans-serif" font-size="13.75" lengthAdjust="spacing" textLength="282.5" x="3554.375" y="120.5237">BestellungEventBinding bestellungEventSource</text><line style="stroke:#A80036;stroke-width:1.875;" x1="3530.625" x2="3864.375" y1="128.5449" y2="128.5449"/><ellipse cx="3543.125" cy="142.2949" fill="#84BE84" rx="3.75" ry="3.75" style="stroke:#038048;stroke-width:1.25;"/><text fill="#000000" font-family="sans-serif" font-size="13.75" lengthAdjust="spacing" textLength="226.25" x="3554.375" y="147.8186">void handleBuchBestelltEvent(Object)</text><!--MD5=[0c23ee65fe88424cbaf1deeb3a295d1e]
class at.itkollegimst.Hain.pos1makro.test2.druckerei.interfaces.events.BestellungEventHandler--><rect codeLine="34" fill="#FEFECE" filter="url(#f2crp952ql2ta)" height="94.5898" id="at.itkollegimst.Hain.pos1makro.test2.druckerei.interfaces.events.BestellungEventHandler" style="stroke:#A80036;stroke-width:1.875;" width="375" x="4216.25" y="61.25"/><ellipse cx="4315.3125" cy="81.25" fill="#ADD1B2" rx="13.75" ry="13.75" style="stroke:#A80036;stroke-width:1.25;"/><path d="M4317.8125,76.875 Q4318.0664,76.25 4318.3594,75.9375 Q4318.6523,75.625 4318.9844,75.625 Q4319.5703,75.625 4319.9414,75.9766 Q4320.3125,76.3281 4320.3125,77.1484 L4320.3125,79.1016 Q4320.3125,79.9219 4319.9609,80.2734 Q4319.6094,80.625 4319.0625,80.625 Q4318.5742,80.625 4318.2617,80.4102 Q4317.9492,80.1953 4317.8125,79.6289 Q4317.7539,79.2383 4317.5391,79.0234 Q4317.1484,78.6133 4316.4453,78.3789 Q4315.7422,78.125 4315.0391,78.125 Q4314.1602,78.125 4313.418,78.4766 Q4312.6953,78.8281 4312.1289,79.6094 Q4311.5625,80.3906 4311.5625,81.4648 L4311.5625,82.6172 Q4311.5625,83.9063 4312.6172,84.7656 Q4313.6719,85.625 4315.5469,85.625 Q4316.6602,85.625 4317.4414,85.3711 Q4317.8906,85.2344 4318.3984,84.7852 Q4318.7305,84.5313 4318.9063,84.4531 Q4319.082,84.375 4319.2969,84.375 Q4319.707,84.375 4320,84.707 Q4320.3125,85.0195 4320.3125,85.4688 Q4320.3125,85.8984 4319.8828,86.4063 Q4319.2578,87.1484 4318.2617,87.5586 Q4316.9531,88.125 4315.3516,88.125 Q4313.4766,88.125 4311.9727,87.3828 Q4310.7617,86.7969 4309.9023,85.5273 Q4309.0625,84.2578 4309.0625,82.7539 L4309.0625,81.3867 Q4309.0625,79.8242 4309.8047,78.457 Q4310.5664,77.0898 4311.875,76.3672 Q4313.2031,75.625 4314.6875,75.625 Q4315.5859,75.625 4316.3672,75.9375 Q4317.1484,76.25 4317.8125,76.875 Z " fill="#000000"/><text fill="#000000" font-family="sans-serif" font-size="15" lengthAdjust="spacing" textLength="166.25" x="4340.9375" y="87.3877">BestellungEventHandler</text><line style="stroke:#A80036;stroke-width:1.875;" x1="4217.5" x2="4590" y1="101.25" y2="101.25"/><rect fill="none" height="7.5" style="stroke:#C82930;stroke-width:1.25;" width="7.5" x="4226.25" y="111.25"/><text fill="#000000" font-family="sans-serif" font-size="13.75" lengthAdjust="spacing" textLength="342.5" x="4241.25" y="120.5237">BuchdruckCommandService buchdruckCommandService</text><line style="stroke:#A80036;stroke-width:1.875;" x1="4217.5" x2="4590" y1="128.5449" y2="128.5449"/><ellipse cx="4230" cy="142.2949" fill="#84BE84" rx="3.75" ry="3.75" style="stroke:#038048;stroke-width:1.25;"/><text fill="#000000" font-family="sans-serif" font-size="13.75" lengthAdjust="spacing" textLength="226.25" x="4241.25" y="147.8186">void recieveEvent(BuchBestelltEvent)</text><!--MD5=[0702bcce7991b6dff02b9781f9294d8e]
class org.springframework.data.domain.AbstractAggregateRoot--><rect fill="#FEFECE" filter="url(#f2crp952ql2ta)" height="60" id="org.springframework.data.domain.AbstractAggregateRoot" style="stroke:#A80036;stroke-width:1.875;" width="197.5" x="1097.5" y="78.75"/><ellipse cx="1116.25" cy="98.75" fill="#ADD1B2" rx="13.75" ry="13.75" style="stroke:#A80036;stroke-width:1.25;"/><path d="M1118.75,94.375 Q1119.0039,93.75 1119.2969,93.4375 Q1119.5898,93.125 1119.9219,93.125 Q1120.5078,93.125 1120.8789,93.4766 Q1121.25,93.8281 1121.25,94.6484 L1121.25,96.6016 Q1121.25,97.4219 1120.8984,97.7734 Q1120.5469,98.125 1120,98.125 Q1119.5117,98.125 1119.1992,97.9102 Q1118.8867,97.6953 1118.75,97.1289 Q1118.6914,96.7383 1118.4766,96.5234 Q1118.0859,96.1133 1117.3828,95.8789 Q1116.6797,95.625 1115.9766,95.625 Q1115.0977,95.625 1114.3555,95.9766 Q1113.6328,96.3281 1113.0664,97.1094 Q1112.5,97.8906 1112.5,98.9648 L1112.5,100.1172 Q1112.5,101.4063 1113.5547,102.2656 Q1114.6094,103.125 1116.4844,103.125 Q1117.5977,103.125 1118.3789,102.8711 Q1118.8281,102.7344 1119.3359,102.2852 Q1119.668,102.0313 1119.8438,101.9531 Q1120.0195,101.875 1120.2344,101.875 Q1120.6445,101.875 1120.9375,102.207 Q1121.25,102.5195 1121.25,102.9688 Q1121.25,103.3984 1120.8203,103.9063 Q1120.1953,104.6484 1119.1992,105.0586 Q1117.8906,105.625 1116.2891,105.625 Q1114.4141,105.625 1112.9102,104.8828 Q1111.6992,104.2969 1110.8398,103.0273 Q1110,101.7578 1110,100.2539 L1110,98.8867 Q1110,97.3242 1110.7422,95.957 Q1111.5039,94.5898 1112.8125,93.8672 Q1114.1406,93.125 1115.625,93.125 Q1116.5234,93.125 1117.3047,93.4375 Q1118.0859,93.75 1118.75,94.375 Z " fill="#000000"/><text fill="#000000" font-family="sans-serif" font-size="15" lengthAdjust="spacing" textLength="157.5" x="1133.75" y="104.8877">AbstractAggregateRoot</text><line style="stroke:#A80036;stroke-width:1.875;" x1="1098.75" x2="1293.75" y1="118.75" y2="118.75"/><line style="stroke:#A80036;stroke-width:1.875;" x1="1098.75" x2="1293.75" y1="128.75" y2="128.75"/><!--MD5=[9066e956ebe5b62a90d194ed6cf4a894]
class org.springframework.data.jpa.repository.JpaRepository--><rect fill="#FEFECE" filter="url(#f2crp952ql2ta)" height="60" id="org.springframework.data.jpa.repository.JpaRepository" style="stroke:#A80036;stroke-width:1.875;" width="138.75" x="2234.375" y="78.75"/><ellipse cx="2253.125" cy="98.75" fill="#ADD1B2" rx="13.75" ry="13.75" style="stroke:#A80036;stroke-width:1.25;"/><path d="M2255.625,94.375 Q2255.8789,93.75 2256.1719,93.4375 Q2256.4648,93.125 2256.7969,93.125 Q2257.3828,93.125 2257.7539,93.4766 Q2258.125,93.8281 2258.125,94.6484 L2258.125,96.6016 Q2258.125,97.4219 2257.7734,97.7734 Q2257.4219,98.125 2256.875,98.125 Q2256.3867,98.125 2256.0742,97.9102 Q2255.7617,97.6953 2255.625,97.1289 Q2255.5664,96.7383 2255.3516,96.5234 Q2254.9609,96.1133 2254.2578,95.8789 Q2253.5547,95.625 2252.8516,95.625 Q2251.9727,95.625 2251.2305,95.9766 Q2250.5078,96.3281 2249.9414,97.1094 Q2249.375,97.8906 2249.375,98.9648 L2249.375,100.1172 Q2249.375,101.4063 2250.4297,102.2656 Q2251.4844,103.125 2253.3594,103.125 Q2254.4727,103.125 2255.2539,102.8711 Q2255.7031,102.7344 2256.2109,102.2852 Q2256.543,102.0313 2256.7188,101.9531 Q2256.8945,101.875 2257.1094,101.875 Q2257.5195,101.875 2257.8125,102.207 Q2258.125,102.5195 2258.125,102.9688 Q2258.125,103.3984 2257.6953,103.9063 Q2257.0703,104.6484 2256.0742,105.0586 Q2254.7656,105.625 2253.1641,105.625 Q2251.2891,105.625 2249.7852,104.8828 Q2248.5742,104.2969 2247.7148,103.0273 Q2246.875,101.7578 2246.875,100.2539 L2246.875,98.8867 Q2246.875,97.3242 2247.6172,95.957 Q2248.3789,94.5898 2249.6875,93.8672 Q2251.0156,93.125 2252.5,93.125 Q2253.3984,93.125 2254.1797,93.4375 Q2254.9609,93.75 2255.625,94.375 Z " fill="#000000"/><text fill="#000000" font-family="sans-serif" font-size="15" lengthAdjust="spacing" textLength="98.75" x="2270.625" y="104.8877">JpaRepository</text><line style="stroke:#A80036;stroke-width:1.875;" x1="2235.625" x2="2371.875" y1="118.75" y2="118.75"/><line style="stroke:#A80036;stroke-width:1.875;" x1="2235.625" x2="2371.875" y1="128.75" y2="128.75"/><!--MD5=[31f48d5609c3bb3cf0dadb28579eac0b]
reverse link org.springframework.data.domain.AbstractAggregateRoot to at.itkollegimst.Hain.pos1makro.test2.druckerei.domain.model.aggregates.Bestellid--><path codeLine="40" d="M1196.25,164.125 C1196.25,193.575 1196.25,229.9375 1196.25,259.5875 " fill="none" id="org.springframework.data.domain.AbstractAggregateRoot-backto-at.itkollegimst.Hain.pos1makro.test2.druckerei.domain.model.aggregates.Bestellid" style="stroke:#A80036;stroke-width:1.25;"/><polygon fill="none" points="1187.5,163.9375,1196.25,138.9375,1205,163.9375,1187.5,163.9375" style="stroke:#A80036;stroke-width:1.25;"/><!--MD5=[03312b4e1a5ebedceea8b01441f37676]
reverse link org.springframework.data.jpa.repository.JpaRepository to at.itkollegimst.Hain.pos1makro.test2.druckerei.infrastructure.repository.jpa.BestellRepository--><path codeLine="41" d="M2303.75,164.2625 C2303.75,203.4 2303.75,254.675 2303.75,286.2125 " fill="none" id="org.springframework.data.jpa.repository.JpaRepository-backto-at.itkollegimst.Hain.pos1makro.test2.druckerei.infrastructure.repository.jpa.BestellRepository" style="stroke:#A80036;stroke-width:1.25;"/><polygon fill="none" points="2295,163.9375,2303.75,138.9375,2312.5,163.9375,2295,163.9375" style="stroke:#A80036;stroke-width:1.25;"/><!--MD5=[d4543427d0617f619ee52501f1c8a215]
@startuml
class at.itkollegimst.Hain.pos1makro.test2.druckerei.DruckereiApplication {
+ {static} void main(String[])
}
class at.itkollegimst.Hain.pos1makro.test2.shareddomain.events.BuchBestelltEvent {
- String bestellid
+ String getBestellid()
+ void setBestellid(String)
}
class at.itkollegimst.Hain.pos1makro.test2.shareddomain.events.BuchdruckAbgeschlossenEvent {
- String bestellid
+ String getBestellid()
+ void setBestellid(String)
}
class at.itkollegimst.Hain.pos1makro.test2.druckerei.domain.model.aggregates.Bestellid {
- Long id
- String bestellid
+ void addDomainEvent(BuchdruckAbgeschlossenEvent)
}
interface at.itkollegimst.Hain.pos1makro.test2.druckerei.infrastructure.brokers.rabittmq.BestellungEventBinding {
~ String BESTELLUNG
~ SubscribableChannel bestellungChannel()
~ MessageChannel buchdruckAbgeschlossenChannel()
}
interface at.itkollegimst.Hain.pos1makro.test2.druckerei.infrastructure.repository.jpa.BestellRepository {
}
class at.itkollegimst.Hain.pos1makro.test2.druckerei.application.internal.commandservices.BuchdruckCommandService {
- BestellRepository bestellRepository
+ void startBuchdruck(String)
}
class at.itkollegimst.Hain.pos1makro.test2.druckerei.application.internal.outboundservices.BuchdruckAbgeschlossenPublisherService {
- BestellungEventBinding bestellungEventSource
+ void handleBuchBestelltEvent(Object)
}
class at.itkollegimst.Hain.pos1makro.test2.druckerei.interfaces.events.BestellungEventHandler {
- BuchdruckCommandService buchdruckCommandService
+ void recieveEvent(BuchBestelltEvent)
}


org.springframework.data.domain.AbstractAggregateRoot <|- - at.itkollegimst.Hain.pos1makro.test2.druckerei.domain.model.aggregates.Bestellid
org.springframework.data.jpa.repository.JpaRepository <|- - at.itkollegimst.Hain.pos1makro.test2.druckerei.infrastructure.repository.jpa.BestellRepository
@enduml

PlantUML version 1.2021.5(Sun Apr 25 13:20:28 CEST 2021)
(GPL source distribution)
Java Runtime: OpenJDK Runtime Environment
JVM: Dynamic Code Evolution 64-Bit Server VM
Default Encoding: Cp1252
Language: de
Country: AT
--></g></svg>